<?xml version="1.0" encoding="utf-8"?>
<!-- Generator: Adobe Illustrator 16.0.3, SVG Export Plug-In . SVG Version: 6.00 Build 0)  -->
<!DOCTYPE svg PUBLIC "-//W3C//DTD SVG 1.1//EN" "http://www.w3.org/Graphics/SVG/1.1/DTD/svg11.dtd">
<svg version="1.1" id="Capa_1" xmlns="http://www.w3.org/2000/svg" xmlns:xlink="http://www.w3.org/1999/xlink" x="0px" y="0px"
	 width="337.054px" height="336.973px" viewBox="0 0 337.054 336.973" enable-background="new 0 0 337.054 336.973"
	 xml:space="preserve">

	 <style>
			@keyframes spin { 
				0% { transform: rotate(0deg);}
				100% { transform: rotate(360deg);}
			}

			.gear {
				animation: spin 20s infinite linear;
				display: block;
				transform-origin: 50% 50%;
			}
		</style>
<g>
	<g>
		
			<linearGradient id="SVGID_1_" gradientUnits="userSpaceOnUse" x1="151.9146" y1="-104.4448" x2="382.3685" y2="126.0091" gradientTransform="matrix(1 0 0 -1 -97.6602 181.04)">
			<stop  offset="0" style="stop-color:#4CAF50"/>
			<stop  offset="1" style="stop-color:#43A047"/>
		</linearGradient>
		<path class="gear" fill="url(#SVGID_1_)" d="M304.67,211.883c-2.057-1.442-4.105-2.837-6.092-4.143c0.422-1.54,0.787-3.008,1.145-4.356
			c0.771-2.724,1.15-5.055,1.512-6.664c0.334-1.615,0.525-2.539,0.525-2.539s0.145-0.933,0.396-2.563
			c0.227-1.633,0.686-3.951,0.92-6.771c0.137-1.39,0.309-2.891,0.451-4.48c2.318-0.527,4.729-1.114,7.158-1.747
			c5.666-1.469,11.375-3.191,15.609-4.603c4.197-1.408,6.996-2.456,6.996-2.456s0.002-1.092,0.006-2.729
			c-0.006-0.819,0.012-1.772-0.016-2.796c-0.049-1.021-0.098-2.112-0.148-3.203c-0.053-1.091-0.105-2.182-0.156-3.204
			c-0.025-0.51-0.053-1.004-0.078-1.474c-0.045-0.466-0.086-0.908-0.125-1.315c-0.156-1.63-0.264-2.718-0.264-2.718
			s-2.885-0.793-7.201-1.822c-1.076-0.247-2.244-0.516-3.48-0.801c-1.25-0.263-2.568-0.539-3.934-0.825
			c-2.729-0.551-5.633-1.088-8.529-1.566c-2.479-0.412-4.941-0.78-7.295-1.1c-0.234-1.578-0.588-3.05-0.842-4.421
			c-0.502-2.785-1.135-5.057-1.525-6.66c-0.404-1.6-0.635-2.514-0.635-2.514s-0.271-0.901-0.752-2.48
			c-0.48-1.576-1.121-3.847-2.119-6.494c-0.238-0.665-0.486-1.359-0.742-2.077c-0.244-0.7-0.506-1.422-0.816-2.146
			c1.857-1.487,3.779-3.066,5.693-4.697c4.473-3.798,8.883-7.847,12.025-10.938c3.178-3.1,5.246-5.265,5.246-5.265
			s-0.467-0.985-1.162-2.464c-0.703-1.477-1.758-3.385-2.77-5.314c-0.52-0.959-1.006-1.937-1.525-2.813
			c-0.52-0.88-1.004-1.701-1.418-2.404c-0.836-1.405-1.391-2.343-1.391-2.343s-0.729,0.141-2.006,0.389
			c-1.273,0.25-3.08,0.611-5.273,1.107c-4.373,0.974-10.125,2.402-15.738,4.043c-2.391,0.691-4.787,1.442-7.066,2.192
			c-0.918-1.308-1.809-2.529-2.654-3.639c-1.715-2.25-3.236-4.052-4.258-5.348c-0.518-0.643-0.969-1.107-1.258-1.444
			c-0.291-0.329-0.449-0.506-0.449-0.506s-0.625-0.706-1.719-1.939c-1.061-1.268-2.754-2.91-4.719-4.944
			c-0.992-0.979-2.082-2.026-3.254-3.112c1.039-2.148,2.1-4.414,3.129-6.722c1.215-2.706,2.354-5.407,3.377-7.965
			c1.027-2.561,1.949-4.98,2.721-7.074c1.537-4.188,2.477-7.045,2.477-7.045s-0.211-0.176-0.576-0.48
			c-0.377-0.292-0.916-0.709-1.563-1.209c-1.303-0.993-3.039-2.314-4.771-3.639c-1.797-1.242-3.592-2.483-4.939-3.414
			c-0.674-0.464-1.236-0.85-1.631-1.117c-0.404-0.256-0.635-0.401-0.635-0.401s-2.432,1.776-5.938,4.533
			c-1.754,1.379-3.771,3.005-5.893,4.775c-2.119,1.772-4.328,3.671-6.527,5.669c-1.875,1.69-3.703,3.401-5.426,5.056
			c-1.395-0.778-2.727-1.493-3.965-2.135c-1.27-0.623-2.434-1.192-3.465-1.698c-0.516-0.253-0.998-0.488-1.445-0.708
			c-0.449-0.212-0.875-0.38-1.25-0.546c-1.516-0.651-2.383-1.024-2.383-1.024s-0.865-0.372-2.381-1.022
			c-1.535-0.604-3.752-1.401-6.4-2.395c-1.324-0.441-2.764-0.901-4.293-1.364c0-2.392-0.031-4.898-0.109-7.427
			c-0.186-5.854-0.627-11.727-1.064-16.177c-0.438-4.444-0.834-7.43-0.834-7.43s-0.264-0.073-0.729-0.166
			c-0.465-0.1-1.131-0.238-1.93-0.405c-1.598-0.328-3.729-0.768-5.859-1.207c-2.147-0.335-4.298-0.67-5.908-0.921
			c-0.808-0.123-1.479-0.226-1.949-0.297c-0.47-0.076-0.741-0.101-0.741-0.101s-1.417,2.658-3.382,6.667
			c-1.97,4.017-4.441,9.359-6.665,14.778c-0.958,2.342-1.866,4.679-2.704,6.918c-1.594-0.103-3.104-0.176-4.498-0.225
			c-2.828,0.002-5.185-0.026-6.834,0c-1.646,0.079-2.589,0.125-2.589,0.125s-0.941,0.044-2.589,0.123
			c-0.412,0.022-0.869,0.031-1.364,0.074c-0.495,0.049-1.03,0.101-1.601,0.156c-1.144,0.112-2.435,0.239-3.841,0.377
			c-1.385,0.166-2.882,0.369-4.461,0.61c-1.033-2.152-2.146-4.396-3.311-6.637c-1.361-2.642-2.764-5.191-4.129-7.595
			c-1.364-2.4-2.686-4.632-3.845-6.537c-2.321-3.812-3.976-6.326-3.976-6.326s-0.267,0.057-0.733,0.152
			c-0.465,0.114-1.125,0.278-1.921,0.476c-1.587,0.399-3.704,0.937-5.819,1.471c-2.089,0.63-4.179,1.261-5.745,1.735
			c-0.781,0.24-1.434,0.441-1.89,0.584c-0.45,0.157-0.706,0.25-0.706,0.25s-0.122,3.005-0.148,7.466
			c-0.012,2.229,0.003,4.818,0.07,7.58c0.063,2.752,0.182,5.682,0.373,8.642c0.154,2.521,0.354,5.014,0.574,7.391
			c-1.477,0.607-2.864,1.207-4.138,1.776c-2.552,1.217-4.714,2.162-6.15,2.979c-1.457,0.771-2.29,1.214-2.29,1.214
			s-0.208,0.109-0.6,0.316c-0.386,0.215-0.973,0.491-1.683,0.913c-1.41,0.856-3.467,2.012-5.86,3.518
			c-1.18,0.743-2.444,1.574-3.761,2.477c-1.873-1.499-3.856-3.043-5.854-4.526c-4.683-3.502-9.568-6.857-13.324-9.301
			c-1.882-1.231-3.446-2.204-4.552-2.886c-1.108-0.678-1.742-1.064-1.742-1.064s-0.85,0.683-2.123,1.706
			c-0.636,0.514-1.376,1.112-2.171,1.756c-0.796,0.641-1.593,1.386-2.415,2.102c-1.623,1.454-3.279,2.872-4.455,4.009
			c-1.171,1.141-1.953,1.901-1.953,1.901s1.181,2.751,3.069,6.768c1.862,3.996,4.575,9.332,7.435,14.456
			c1.221,2.197,2.468,4.354,3.688,6.395c-0.545,0.569-1.044,1.152-1.518,1.725c-0.491,0.583-0.966,1.146-1.421,1.687
			c-1.863,2.131-3.258,4.031-4.261,5.342c-1.001,1.311-1.574,2.061-1.574,2.061s-0.536,0.774-1.474,2.132
			c-0.928,1.363-2.317,3.27-3.763,5.702c-0.719,1.195-1.563,2.45-2.337,3.848c-2.316-0.525-4.752-1.044-7.218-1.525
			c-2.881-0.565-5.789-1.08-8.538-1.521c-1.378-0.211-2.711-0.414-3.975-0.604c-1.258-0.166-2.444-0.323-3.541-0.469
			c-4.402-0.55-7.383-0.816-7.383-0.816s-0.479,0.982-1.198,2.453c-0.179,0.369-0.372,0.769-0.578,1.19
			c-0.187,0.43-0.385,0.883-0.589,1.352c-0.405,0.94-0.837,1.942-1.27,2.945c-0.429,1.005-0.857,2.008-1.259,2.949
			c-0.386,0.946-0.703,1.848-0.994,2.612c-0.571,1.535-0.951,2.559-0.951,2.559s2.254,1.961,5.693,4.749
			c3.472,2.805,8.215,6.418,13.008,9.78c2.055,1.441,4.104,2.835,6.092,4.144c-0.423,1.539-0.788,3.006-1.145,4.354
			c-0.771,2.725-1.151,5.057-1.51,6.665c-0.335,1.616-0.527,2.539-0.527,2.539s-0.145,0.932-0.396,2.563
			c-0.228,1.634-0.687,3.949-0.92,6.771c-0.139,1.389-0.31,2.891-0.453,4.481c-2.318,0.526-4.728,1.114-7.156,1.746
			c-5.668,1.471-11.376,3.192-15.61,4.604c-4.198,1.408-6.996,2.455-6.996,2.455s-0.002,1.091-0.006,2.728
			c0.006,0.819-0.013,1.773,0.017,2.798c0.047,1.021,0.096,2.112,0.147,3.204c0.053,1.089,0.106,2.18,0.156,3.201
			c0.027,0.512,0.054,1.006,0.079,1.475c0.044,0.467,0.086,0.908,0.125,1.315c0.158,1.631,0.262,2.718,0.262,2.718
			s2.886,0.794,7.202,1.821c1.078,0.248,2.246,0.519,3.481,0.802c1.251,0.263,2.57,0.539,3.935,0.826
			c2.728,0.55,5.633,1.086,8.529,1.566c2.479,0.411,4.942,0.779,7.295,1.099c0.235,1.578,0.588,3.052,0.842,4.422
			c0.501,2.783,1.135,5.058,1.526,6.658c0.403,1.601,0.633,2.515,0.633,2.515s0.274,0.901,0.754,2.479
			c0.48,1.578,1.12,3.848,2.119,6.495c0.238,0.666,0.485,1.359,0.741,2.077c0.244,0.702,0.506,1.424,0.817,2.146
			c-1.858,1.486-3.78,3.066-5.693,4.697c-4.473,3.798-8.883,7.846-12.025,10.938c-3.179,3.1-5.248,5.265-5.248,5.265
			s0.465,0.985,1.163,2.465c0.703,1.478,1.758,3.384,2.769,5.315c0.519,0.957,1.005,1.934,1.525,2.813
			c0.519,0.88,1.003,1.7,1.417,2.403c0.835,1.405,1.391,2.344,1.391,2.344s0.729-0.142,2.005-0.388
			c1.274-0.252,3.08-0.614,5.274-1.109c4.373-0.973,10.125-2.401,15.736-4.044c2.392-0.689,4.789-1.442,7.068-2.189
			c0.917,1.306,1.809,2.526,2.655,3.637c1.714,2.25,3.235,4.052,4.257,5.347c0.517,0.644,0.97,1.108,1.256,1.445
			c0.293,0.331,0.45,0.508,0.45,0.508s0.625,0.705,1.721,1.938c1.061,1.269,2.752,2.909,4.717,4.943
			c0.992,0.981,2.083,2.027,3.253,3.113c-1.038,2.147-2.099,4.416-3.127,6.723c-1.216,2.705-2.354,5.406-3.377,7.964
			c-1.027,2.561-1.951,4.981-2.72,7.075c-1.537,4.187-2.477,7.044-2.477,7.044s0.209,0.175,0.574,0.48
			c0.377,0.292,0.917,0.709,1.564,1.209c1.301,0.993,3.037,2.315,4.771,3.639c1.795,1.242,3.592,2.484,4.938,3.414
			c0.675,0.464,1.237,0.85,1.632,1.119c0.403,0.254,0.634,0.398,0.634,0.398s2.431-1.775,5.938-4.532
			c1.753-1.38,3.771-3.005,5.891-4.775c2.12-1.773,4.328-3.671,6.527-5.667c1.876-1.693,3.704-3.404,5.426-5.057
			c1.395,0.777,2.726,1.491,3.964,2.135c1.271,0.622,2.435,1.19,3.465,1.698c0.517,0.252,0.998,0.488,1.445,0.707
			c0.45,0.213,0.874,0.382,1.251,0.548c1.516,0.649,2.382,1.021,2.382,1.021s0.866,0.372,2.382,1.023
			c1.535,0.603,3.752,1.401,6.4,2.394c1.324,0.442,2.763,0.904,4.292,1.365c0,2.391,0.031,4.897,0.109,7.427
			c0.185,5.854,0.627,11.727,1.064,16.176c0.438,4.444,0.833,7.431,0.833,7.431s0.263,0.073,0.729,0.167
			c0.466,0.098,1.132,0.236,1.93,0.404c1.597,0.329,3.728,0.768,5.858,1.206c2.148,0.335,4.298,0.672,5.91,0.922
			c0.807,0.124,1.479,0.226,1.949,0.297c0.47,0.077,0.741,0.1,0.741,0.1s1.417-2.657,3.382-6.667
			c1.97-4.014,4.44-9.357,6.664-14.778c0.959-2.34,1.866-4.678,2.704-6.917c1.595,0.103,3.104,0.177,4.5,0.227
			c2.827-0.002,5.185,0.023,6.833,0c1.648-0.08,2.589-0.125,2.589-0.125s0.942-0.046,2.589-0.125
			c0.412-0.023,0.869-0.032,1.364-0.074c0.494-0.047,1.029-0.101,1.601-0.157c1.145-0.11,2.434-0.236,3.841-0.375
			c1.384-0.168,2.882-0.371,4.46-0.61c1.033,2.15,2.146,4.396,3.312,6.636c1.361,2.642,2.764,5.192,4.129,7.596
			c1.364,2.399,2.686,4.63,3.844,6.537c2.322,3.812,3.975,6.325,3.975,6.325s0.268-0.055,0.734-0.152
			c0.465-0.113,1.125-0.278,1.922-0.476c1.586-0.4,3.703-0.936,5.818-1.469c2.09-0.633,4.18-1.264,5.744-1.736
			c0.783-0.241,1.434-0.443,1.891-0.584c0.449-0.159,0.707-0.25,0.707-0.25s0.121-3.006,0.148-7.465
			c0.012-2.23-0.004-4.821-0.07-7.58c-0.063-2.752-0.184-5.684-0.373-8.645c-0.156-2.52-0.355-5.014-0.574-7.39
			c1.477-0.606,2.863-1.205,4.137-1.776c2.553-1.218,4.713-2.162,6.148-2.979c1.459-0.771,2.291-1.214,2.291-1.214
			s0.209-0.109,0.6-0.315c0.387-0.216,0.975-0.493,1.684-0.914c1.41-0.855,3.467-2.011,5.861-3.518
			c1.18-0.743,2.441-1.574,3.76-2.478c1.873,1.499,3.855,3.044,5.854,4.527c4.682,3.504,9.568,6.857,13.322,9.301
			c1.885,1.232,3.447,2.204,4.555,2.885c1.107,0.68,1.74,1.065,1.74,1.065s0.85-0.683,2.123-1.706
			c0.637-0.514,1.377-1.113,2.172-1.756c0.795-0.641,1.592-1.386,2.414-2.102c1.621-1.453,3.279-2.871,4.455-4.008
			c1.17-1.142,1.953-1.9,1.953-1.9s-1.182-2.753-3.072-6.771c-1.859-3.996-4.572-9.332-7.434-14.456
			c-1.219-2.197-2.467-4.351-3.688-6.394c0.545-0.568,1.043-1.153,1.52-1.726c0.49-0.582,0.965-1.146,1.42-1.686
			c1.863-2.131,3.258-4.031,4.262-5.341c1.002-1.313,1.574-2.061,1.574-2.061s0.535-0.774,1.475-2.134
			c0.928-1.361,2.316-3.269,3.762-5.702c0.719-1.193,1.563-2.45,2.336-3.847c2.316,0.525,4.754,1.045,7.219,1.527
			c2.881,0.563,5.789,1.078,8.537,1.52c1.379,0.209,2.711,0.412,3.975,0.604c1.258,0.166,2.445,0.322,3.541,0.469
			c4.402,0.55,7.385,0.815,7.385,0.815s0.479-0.979,1.197-2.452c0.18-0.367,0.373-0.768,0.576-1.189
			c0.189-0.429,0.389-0.883,0.59-1.353c0.406-0.938,0.84-1.941,1.271-2.945c0.43-1.003,0.857-2.008,1.258-2.948
			c0.387-0.948,0.703-1.849,0.996-2.613c0.57-1.533,0.949-2.558,0.949-2.558s-2.254-1.961-5.691-4.75
			C314.207,218.857,309.463,215.244,304.67,211.883z M256.717,236.133c-0.816,1.063-1.939,2.616-3.465,4.341
			c-0.369,0.44-0.754,0.898-1.152,1.373c-0.395,0.479-0.807,0.969-1.268,1.439c-0.898,0.966-1.844,1.984-2.822,3.038
			c-1.012,1.021-2.094,2.042-3.166,3.104l-0.811,0.798l-0.859,0.757c-0.572,0.506-1.145,1.015-1.721,1.522
			c-4.627,4.038-9.611,7.654-13.51,10.108c-1.949,1.226-3.627,2.161-4.771,2.865c-0.576,0.346-1.057,0.564-1.371,0.74
			c-0.318,0.168-0.488,0.258-0.488,0.258s-0.678,0.359-1.863,0.988c-1.164,0.676-2.934,1.426-5.004,2.426
			c-4.199,1.877-9.92,4.127-15.83,5.765c-5.91,1.636-11.958,2.648-16.514,3.207c-1.142,0.111-2.188,0.214-3.117,0.304
			c-0.464,0.048-0.897,0.092-1.3,0.134c-0.401,0.034-0.773,0.037-1.107,0.056c-1.338,0.063-2.104,0.099-2.104,0.099
			s-0.764,0.038-2.102,0.107c-1.341,0-3.255,0-5.553,0c-4.596-0.175-10.723-0.649-16.798-1.728
			c-6.066-1.119-11.973-2.82-16.338-4.267c-2.151-0.804-3.944-1.476-5.2-1.945c-1.229-0.532-1.932-0.837-1.932-0.837
			s-0.704-0.301-1.936-0.828c-0.308-0.133-0.653-0.267-1.018-0.439c-0.361-0.179-0.753-0.372-1.171-0.58
			c-0.838-0.41-1.783-0.871-2.813-1.376c-4.07-2.117-9.381-5.187-14.344-8.787c-4.961-3.604-9.53-7.715-12.807-10.943
			c-1.591-1.664-2.984-2.983-3.838-4.023c-0.891-1.008-1.4-1.581-1.4-1.581s-0.128-0.144-0.367-0.41
			c-0.233-0.275-0.607-0.648-1.025-1.174c-0.824-1.063-2.068-2.524-3.465-4.355c-2.791-3.665-6.194-8.798-9.113-14.201
			c-0.359-0.677-0.719-1.354-1.078-2.028l-0.541-1.011l-0.479-1.028c-0.631-1.373-1.287-2.708-1.878-4.02
			c-0.547-1.329-1.076-2.613-1.578-3.834c-0.269-0.603-0.483-1.207-0.684-1.793c-0.208-0.585-0.407-1.147-0.6-1.689
			c-0.822-2.149-1.331-3.997-1.724-5.277c-0.395-1.282-0.619-2.016-0.619-2.016s-0.185-0.742-0.507-2.043
			c-0.315-1.303-0.845-3.146-1.24-5.407c-0.205-1.13-0.511-2.339-0.696-3.641c-0.192-1.302-0.396-2.673-0.606-4.093
			c-0.305-2.851-0.666-5.895-0.747-8.957c-0.039-0.765-0.079-1.527-0.117-2.29c0.003-0.763,0.006-1.521,0.01-2.276
			c0.001-0.754,0.001-1.502,0.001-2.24c0.002-0.37-0.007-0.736,0.003-1.102c0.021-0.365,0.042-0.727,0.063-1.085
			c0.073-1.438,0.146-2.823,0.213-4.141c0.135-1.313,0.263-2.556,0.38-3.701c0.176-2.297,0.572-4.188,0.751-5.521
			c0.201-1.333,0.316-2.094,0.316-2.094s0.158-0.753,0.438-2.071c0.299-1.313,0.591-3.224,1.231-5.437
			c0.291-1.115,0.605-2.321,0.939-3.601c0.398-1.257,0.817-2.582,1.25-3.951c0.107-0.345,0.214-0.689,0.322-1.039
			c0.118-0.346,0.256-0.686,0.383-1.031c0.258-0.693,0.521-1.395,0.784-2.101c0.261-0.708,0.522-1.421,0.788-2.137
			c0.304-0.699,0.607-1.401,0.913-2.104c1.147-2.841,2.552-5.563,3.837-8.128c0.693-1.256,1.366-2.47,2.002-3.619
			c0.629-1.154,1.339-2.181,1.927-3.167c1.163-1.98,2.304-3.521,3.054-4.631c0.759-1.104,1.192-1.735,1.192-1.735
			s0.467-0.607,1.284-1.67c0.816-1.063,1.939-2.614,3.463-4.341c0.37-0.439,0.755-0.896,1.154-1.373
			c0.393-0.479,0.806-0.969,1.268-1.439c0.896-0.966,1.842-1.984,2.821-3.038c1.012-1.021,2.094-2.041,3.166-3.105l0.811-0.797
			l0.859-0.755c0.572-0.508,1.146-1.017,1.722-1.524c4.626-4.038,9.611-7.652,13.508-10.108c1.95-1.226,3.628-2.159,4.771-2.865
			c0.577-0.346,1.058-0.564,1.372-0.739c0.317-0.169,0.487-0.258,0.487-0.258s0.679-0.358,1.865-0.987
			c1.163-0.678,2.933-1.428,5.005-2.428c4.199-1.877,9.92-4.126,15.828-5.765c5.91-1.635,11.958-2.648,16.512-3.206
			c1.144-0.111,2.19-0.214,3.118-0.303c0.466-0.048,0.899-0.093,1.301-0.134c0.4-0.036,0.772-0.039,1.106-0.058
			c1.338-0.063,2.104-0.098,2.104-0.098s0.765-0.039,2.102-0.107c1.34,0,3.255,0,5.553-0.001c4.596,0.176,10.723,0.651,16.797,1.729
			c6.067,1.119,11.974,2.818,16.337,4.265c2.152,0.807,3.945,1.478,5.201,1.945c1.229,0.533,1.932,0.837,1.932,0.837
			s0.703,0.302,1.934,0.828c0.307,0.135,0.654,0.268,1.02,0.439c0.359,0.181,0.752,0.373,1.17,0.58
			c0.838,0.41,1.781,0.871,2.813,1.376c4.07,2.119,9.379,5.188,14.342,8.787c4.961,3.604,9.531,7.715,12.809,10.945
			c1.592,1.662,2.984,2.981,3.838,4.023c0.891,1.006,1.398,1.579,1.398,1.579s0.129,0.145,0.369,0.412
			c0.23,0.273,0.605,0.648,1.025,1.174c0.824,1.063,2.066,2.524,3.465,4.354c2.791,3.666,6.193,8.798,9.111,14.201
			c0.359,0.678,0.721,1.354,1.078,2.03l0.539,1.009l0.48,1.03c0.633,1.372,1.287,2.707,1.879,4.02
			c0.547,1.329,1.076,2.614,1.578,3.833c0.266,0.604,0.482,1.206,0.682,1.794c0.209,0.583,0.408,1.146,0.602,1.688
			c0.822,2.15,1.33,3.997,1.723,5.279c0.396,1.281,0.619,2.014,0.619,2.014s0.186,0.743,0.508,2.043
			c0.314,1.303,0.844,3.146,1.238,5.408c0.207,1.129,0.514,2.338,0.697,3.642c0.191,1.3,0.396,2.673,0.607,4.092
			c0.305,2.852,0.666,5.894,0.746,8.956c0.039,0.765,0.078,1.527,0.117,2.29c-0.004,0.764-0.006,1.522-0.01,2.276
			c0,0.754-0.002,1.502-0.002,2.241c-0.002,0.369,0.008,0.737-0.004,1.102c-0.021,0.364-0.041,0.728-0.063,1.086
			c-0.074,1.436-0.146,2.823-0.213,4.141c-0.135,1.313-0.262,2.554-0.381,3.699c-0.176,2.299-0.57,4.189-0.75,5.522
			c-0.201,1.332-0.316,2.095-0.316,2.095s-0.158,0.753-0.438,2.07c-0.299,1.313-0.592,3.224-1.23,5.438
			c-0.291,1.113-0.605,2.322-0.939,3.599c-0.396,1.257-0.816,2.582-1.25,3.953c-0.107,0.343-0.215,0.688-0.322,1.037
			c-0.117,0.346-0.256,0.687-0.383,1.033c-0.258,0.691-0.521,1.393-0.783,2.1s-0.523,1.42-0.787,2.137
			c-0.305,0.698-0.609,1.4-0.914,2.104c-1.146,2.841-2.551,5.563-3.836,8.128c-0.695,1.255-1.365,2.469-2.002,3.619
			c-0.629,1.155-1.34,2.181-1.928,3.166c-1.162,1.98-2.305,3.521-3.055,4.632c-0.76,1.105-1.191,1.735-1.191,1.735
			S257.533,235.07,256.717,236.133z"/>
	</g>
</g>
<g id="Capa_1_1_">
	<path fill="#1B5E20" d="M177.225,187.185c18.827,2.971,33.228,19.269,33.228,38.938c0,21.771-17.648,39.418-39.417,39.418
		c-21.774,0-39.421-17.646-39.421-39.418c0-19.669,14.398-35.967,33.229-38.938l7.214,6.088l-7.214,6.422
		c-12.005,2.802-20.949,13.568-20.949,26.428c0,14.985,12.15,27.136,27.141,27.136c14.984,0,27.14-12.149,27.14-27.136
		c0-12.857-8.948-23.626-20.949-26.428l-5.167-6.422L177.225,187.185z"/>
	<path fill="#65BA69" d="M177.225,176.627v26.339c0,3.417-2.772,6.19-6.189,6.19c-3.421,0-6.19-2.773-6.19-6.19v-26.339
		c2.019-0.315,4.086-0.481,6.19-0.481C173.139,176.146,175.208,176.311,177.225,176.627z"/>
	<path fill="#429F46" d="M177.225,178.691v14.819h-12.381v-14.819c2.019-0.317,4.086-0.483,6.19-0.483
		S175.208,178.374,177.225,178.691z"/>
	<path fill="#66BB6A" d="M229.654,174.783v1.094c0,4.953-4.016,8.967-8.967,8.967h-43.462h-6.189h-6.191h-46.371
		c-4.953,0-8.964-4.014-8.964-8.967v-1.094c0-4.952,4.011-8.968,8.964-8.968h16.508l31.712-9.894l37.485,9.894h16.508
		C225.639,165.815,229.654,169.831,229.654,174.783z"/>
	<path fill="#FBC02D" d="M204.18,165.815h-69.199c3.348-8.617,9.822-15.675,18.031-19.777c3.179-1.589,5.126-4.911,5.126-8.464
		v-0.146c0-6.81-2.431-13.33-6.616-18.695c-3.288-4.214-5.137-9.611-4.79-15.443c0.681-11.662,10.271-21.044,21.946-21.493
		c13.055-0.495,23.797,9.935,23.797,22.876c0,5.447-1.906,10.446-5.084,14.37c-2.108,2.612-3.701,5.567-4.767,8.712
		c-1.062,3.143-1.597,6.467-1.597,9.827c0,3.607,2.033,6.9,5.258,8.527c3.541,1.785,6.756,4.117,9.533,6.896
		C199.424,156.611,202.297,160.966,204.18,165.815z"/>
	<path fill="#F9A825" d="M166.011,146.039c2.997-1.91,5.126-4.912,5.126-8.465v-0.146c0-6.81-2.43-13.33-6.616-18.695
		c-3.288-4.214-5.138-9.61-4.79-15.442c0.567-9.733,7.346-17.874,16.358-20.563c-2.337-0.692-4.828-1.027-7.412-0.932
		c-11.675,0.45-21.267,9.831-21.948,21.494c-0.346,5.832,1.504,11.229,4.793,15.442c4.185,5.366,6.615,11.887,6.615,18.695v0.146
		c0,3.553-1.947,6.875-5.126,8.465c-8.208,4.103-14.684,11.159-18.03,19.776h20.802
		C155.784,165.815,155.165,152.948,166.011,146.039z"/>
	<path fill="#43A047" d="M140.46,175.877v-1.093c0-4.953,4.011-8.969,8.964-8.969h-14.443h-16.508c-4.953,0-8.964,4.016-8.964,8.969
		v1.093c0,4.953,4.012,8.968,8.964,8.968h30.951C144.471,184.845,140.46,180.83,140.46,175.877z"/>
</g>
</svg>
