<?xml version="1.0" encoding="utf-8"?>
<!-- Generator: Adobe Illustrator 16.0.3, SVG Export Plug-In . SVG Version: 6.00 Build 0)  -->
<!DOCTYPE svg PUBLIC "-//W3C//DTD SVG 1.1//EN" "http://www.w3.org/Graphics/SVG/1.1/DTD/svg11.dtd">
<svg version="1.1" id="Capa_1" xmlns="http://www.w3.org/2000/svg" xmlns:xlink="http://www.w3.org/1999/xlink" x="0px" y="0px"
	 width="337.054px" height="336.973px" viewBox="0 0 337.054 336.973" enable-background="new 0 0 337.054 336.973"
	 xml:space="preserve">

	 <style>
			@keyframes spin { 
				0% { transform: rotate(0deg);}
				100% { transform: rotate(360deg);}
			}

			.gear {
				animation: spin 20s infinite linear;
				display: block;
				transform-origin: 50% 50%;
			}
		</style>
<g>
	<g>
		
			<linearGradient id="SVGID_1_" gradientUnits="userSpaceOnUse" x1="135.7759" y1="-106.3037" x2="361.432" y2="119.3525" gradientTransform="matrix(0.9909 0.1346 0.1346 -0.9909 -77.1189 142.2121)">
			<stop  offset="0" style="stop-color:#9C27B0"/>
			<stop  offset="1" style="stop-color:#8E24AA"/>
		</linearGradient>
		<path class="gear" fill="url(#SVGID_1_)" d="M305.403,195.256c-2.142-1.179-4.273-2.313-6.336-3.369c0.247-1.536,0.446-2.996,0.649-4.339
			c0.458-2.719,0.582-5.015,0.759-6.611c0.153-1.601,0.242-2.516,0.242-2.516s0.041-0.918,0.112-2.524
			c0.049-1.604,0.251-3.897,0.178-6.655c-0.014-1.357-0.005-2.832-0.034-4.385c2.19-0.756,4.461-1.579,6.746-2.447
			c5.333-2.021,10.681-4.291,14.631-6.103c3.917-1.806,6.516-3.117,6.516-3.117s-0.113-1.056-0.282-2.642
			c-0.092-0.791-0.174-1.719-0.311-2.706c-0.152-0.984-0.316-2.034-0.479-3.084c-0.167-1.052-0.335-2.102-0.49-3.086
			c-0.081-0.492-0.159-0.969-0.231-1.418c-0.092-0.447-0.18-0.871-0.26-1.261c-0.324-1.563-0.54-2.605-0.54-2.605
			s-2.878-0.464-7.165-1.005c-1.07-0.125-2.231-0.264-3.457-0.409c-1.239-0.121-2.545-0.25-3.896-0.383
			c-2.701-0.245-5.57-0.458-8.426-0.619c-2.442-0.138-4.867-0.233-7.18-0.294c-0.394-1.504-0.89-2.893-1.281-4.193
			c-0.78-2.646-1.633-4.778-2.182-6.289c-0.559-1.506-0.877-2.367-0.877-2.367s-0.36-0.845-0.99-2.324
			c-0.633-1.476-1.493-3.608-2.739-6.066c-0.301-0.619-0.613-1.264-0.938-1.933c-0.31-0.654-0.64-1.322-1.018-1.991
			c1.641-1.636,3.337-3.37,5.017-5.149c3.932-4.152,7.774-8.536,10.493-11.859c2.749-3.338,4.525-5.654,4.525-5.654
			s-0.556-0.904-1.388-2.261c-0.834-1.356-2.059-3.094-3.24-4.856c-0.604-0.874-1.178-1.768-1.774-2.564
			c-0.595-0.796-1.151-1.541-1.627-2.18c-0.956-1.271-1.593-2.12-1.593-2.12s-0.691,0.213-1.902,0.587
			c-1.208,0.378-2.917,0.92-4.99,1.629c-4.132,1.404-9.551,3.396-14.813,5.576c-2.241,0.922-4.484,1.903-6.614,2.867
			c-1.024-1.168-2.017-2.257-2.952-3.243c-1.897-1.997-3.563-3.58-4.686-4.728c-0.568-0.569-1.057-0.971-1.369-1.266
			c-0.317-0.29-0.49-0.442-0.49-0.442s-0.68-0.619-1.87-1.698c-1.158-1.115-2.973-2.528-5.088-4.291
			c-1.065-0.845-2.23-1.744-3.479-2.672c0.778-2.189,1.566-4.497,2.319-6.838c0.892-2.749,1.707-5.484,2.432-8.068
			c0.726-2.588,1.363-5.03,1.887-7.137c1.047-4.216,1.655-7.083,1.655-7.083s-0.222-0.148-0.607-0.404
			c-0.397-0.244-0.964-0.59-1.643-1.006c-1.366-0.823-3.186-1.921-5.007-3.02c-1.87-1.013-3.738-2.026-5.142-2.786
			c-0.702-0.378-1.287-0.691-1.698-0.911c-0.418-0.205-0.657-0.319-0.657-0.319s-2.165,1.977-5.271,5.016
			c-1.553,1.52-3.338,3.308-5.201,5.245c-1.866,1.94-3.804,4.013-5.724,6.177c-1.638,1.837-3.228,3.686-4.722,5.47
			c-1.431-0.608-2.796-1.16-4.063-1.649c-1.295-0.469-2.482-0.898-3.534-1.278c-0.525-0.191-1.02-0.369-1.474-0.534
			c-0.457-0.16-0.887-0.278-1.269-0.398c-1.537-0.471-2.416-0.74-2.416-0.74s-0.877-0.269-2.413-0.739
			c-1.55-0.42-3.782-0.96-6.451-1.642c-1.329-0.29-2.771-0.583-4.3-0.869c-0.251-2.315-0.546-4.74-0.888-7.18
			c-0.796-5.649-1.844-11.29-2.739-15.552c-0.891-4.257-1.59-7.106-1.59-7.106s-0.261-0.045-0.723-0.085
			c-0.461-0.045-1.121-0.11-1.911-0.188c-1.583-0.149-3.691-0.349-5.8-0.549c-2.117-0.098-4.234-0.196-5.821-0.27
			c-0.793-0.034-1.455-0.062-1.918-0.082c-0.462-0.023-0.728-0.018-0.728-0.018s-1.091,2.723-2.572,6.813
			c-1.483,4.096-3.313,9.532-4.894,15.015c-0.682,2.367-1.314,4.726-1.888,6.984c-1.554,0.069-3.024,0.158-4.38,0.258
			c-2.739,0.298-5.024,0.521-6.618,0.72c-1.586,0.25-2.494,0.393-2.494,0.393s-0.907,0.144-2.495,0.393
			c-0.396,0.066-0.837,0.124-1.313,0.216c-0.473,0.1-0.985,0.207-1.535,0.322c-1.095,0.23-2.33,0.487-3.679,0.771
			c-1.323,0.307-2.752,0.661-4.255,1.061c-1.229-1.973-2.543-4.03-3.907-6.078c-1.597-2.413-3.225-4.734-4.799-6.917
			c-1.573-2.181-3.089-4.2-4.413-5.923c-2.649-3.446-4.516-5.708-4.516-5.708s-0.253,0.082-0.696,0.226
			c-0.436,0.159-1.061,0.389-1.809,0.663c-1.495,0.556-3.489,1.295-5.482,2.036c-1.957,0.833-3.913,1.663-5.379,2.289
			c-0.73,0.316-1.34,0.579-1.768,0.765c-0.419,0.201-0.658,0.315-0.658,0.315s0.199,2.924,0.644,7.246
			c0.224,2.16,0.512,4.667,0.867,7.332c0.353,2.659,0.776,5.482,1.272,8.33c0.417,2.424,0.874,4.819,1.338,7.096
			c-1.366,0.744-2.647,1.471-3.82,2.156c-2.342,1.448-4.337,2.592-5.641,3.535c-1.331,0.901-2.09,1.415-2.09,1.415
			s-0.19,0.129-0.546,0.371c-0.352,0.25-0.89,0.58-1.534,1.063c-1.275,0.978-3.145,2.313-5.304,4.022
			c-1.064,0.845-2.2,1.785-3.381,2.796c-1.972-1.255-4.055-2.54-6.146-3.767c-4.903-2.898-9.989-5.631-13.883-7.601
			c-1.953-0.996-3.57-1.772-4.712-2.316c-1.145-0.539-1.8-0.848-1.8-0.848s-0.75,0.751-1.876,1.876
			c-0.56,0.565-1.214,1.223-1.917,1.931c-0.702,0.704-1.396,1.51-2.115,2.289c-1.419,1.58-2.874,3.128-3.893,4.352
			c-1.014,1.228-1.69,2.048-1.69,2.048s1.434,2.54,3.687,6.231c2.226,3.673,5.415,8.554,8.724,13.214
			c1.414,2,2.85,3.953,4.247,5.803c-0.469,0.608-0.889,1.227-1.288,1.831c-0.414,0.617-0.814,1.21-1.199,1.783
			c-1.579,2.259-2.728,4.249-3.563,5.62c-0.832,1.376-1.307,2.161-1.307,2.161s-0.437,0.807-1.202,2.22
			c-0.754,1.418-1.899,3.411-3.042,5.92c-0.57,1.233-1.254,2.537-1.857,3.971c-2.298-0.264-4.712-0.509-7.151-0.717
			c-2.849-0.243-5.721-0.432-8.428-0.57c-1.357-0.057-2.669-0.114-3.913-0.167c-1.233-0.028-2.401-0.055-3.478-0.079
			c-4.321-0.068-7.236-0.012-7.236-0.012s-0.361,1.002-0.9,2.501c-0.135,0.376-0.281,0.784-0.434,1.212
			c-0.136,0.437-0.279,0.896-0.429,1.373c-0.293,0.953-0.606,1.969-0.918,2.985c-0.308,1.018-0.618,2.035-0.908,2.989
			c-0.274,0.96-0.484,1.866-0.687,2.635c-0.39,1.545-0.651,2.576-0.651,2.576s2.39,1.663,6.015,4
			c3.656,2.35,8.631,5.348,13.629,8.098c2.142,1.18,4.273,2.314,6.337,3.37c-0.248,1.535-0.447,2.996-0.651,4.339
			c-0.457,2.718-0.581,5.016-0.757,6.613c-0.155,1.599-0.244,2.514-0.244,2.514s-0.041,0.917-0.113,2.524
			c-0.048,1.604-0.249,3.896-0.177,6.654c0.012,1.36,0.005,2.832,0.034,4.387c-2.191,0.754-4.46,1.578-6.747,2.445
			c-5.334,2.022-10.679,4.292-14.63,6.105c-3.916,1.804-6.516,3.115-6.516,3.115s0.112,1.056,0.283,2.642
			c0.092,0.793,0.174,1.719,0.31,2.706c0.154,0.985,0.317,2.036,0.48,3.086c0.167,1.05,0.334,2.1,0.49,3.085
			c0.081,0.492,0.158,0.968,0.231,1.419c0.091,0.446,0.18,0.87,0.26,1.261c0.325,1.562,0.542,2.604,0.542,2.604
			s2.878,0.465,7.166,1.004c1.07,0.127,2.229,0.264,3.455,0.41c1.239,0.121,2.545,0.25,3.897,0.385
			c2.7,0.246,5.569,0.457,8.424,0.616c2.444,0.138,4.869,0.233,7.18,0.296c0.394,1.503,0.89,2.891,1.281,4.193
			c0.779,2.644,1.633,4.776,2.181,6.286c0.558,1.507,0.877,2.367,0.877,2.367s0.36,0.845,0.991,2.325
			c0.632,1.476,1.492,3.606,2.738,6.064c0.3,0.62,0.614,1.265,0.937,1.934c0.31,0.654,0.64,1.324,1.017,1.99
			c-1.642,1.638-3.337,3.371-5.018,5.15c-3.93,4.151-7.773,8.537-10.492,11.86c-2.75,3.338-4.525,5.651-4.525,5.651
			s0.555,0.905,1.387,2.265c0.835,1.354,2.059,3.09,3.24,4.854c0.604,0.872,1.177,1.767,1.773,2.563
			c0.596,0.798,1.152,1.542,1.628,2.179c0.955,1.272,1.592,2.122,1.592,2.122s0.691-0.214,1.902-0.587
			c1.208-0.377,2.917-0.919,4.99-1.63c4.132-1.403,9.552-3.395,14.813-5.577c2.242-0.92,4.486-1.901,6.614-2.866
			c1.025,1.168,2.018,2.258,2.953,3.243c1.897,1.997,3.561,3.581,4.687,4.729c0.568,0.567,1.055,0.972,1.368,1.267
			c0.319,0.288,0.489,0.442,0.489,0.442s0.681,0.617,1.871,1.697c1.16,1.113,2.973,2.526,5.089,4.29
			c1.064,0.845,2.23,1.742,3.478,2.671c-0.779,2.189-1.567,4.497-2.319,6.838c-0.892,2.749-1.708,5.485-2.429,8.068
			c-0.727,2.589-1.364,5.029-1.888,7.137c-1.047,4.218-1.656,7.083-1.656,7.083s0.222,0.147,0.608,0.407
			c0.396,0.241,0.963,0.589,1.643,1.004c1.364,0.824,3.185,1.923,5.006,3.021c1.869,1.014,3.739,2.026,5.14,2.786
			c0.704,0.377,1.289,0.69,1.699,0.911c0.417,0.203,0.657,0.319,0.657,0.319s2.165-1.978,5.272-5.017
			c1.553-1.521,3.335-3.307,5.201-5.246c1.866-1.94,3.804-4.012,5.724-6.177c1.637-1.837,3.227-3.687,4.72-5.47
			c1.433,0.607,2.798,1.159,4.065,1.649c1.294,0.469,2.482,0.898,3.535,1.278c0.525,0.19,1.019,0.369,1.474,0.534
			c0.457,0.158,0.887,0.276,1.269,0.397c1.537,0.471,2.415,0.739,2.415,0.739s0.877,0.27,2.415,0.74
			c1.549,0.421,3.781,0.961,6.45,1.643c1.328,0.29,2.772,0.582,4.301,0.869c0.252,2.315,0.547,4.74,0.889,7.18
			c0.796,5.651,1.844,11.291,2.738,15.553c0.892,4.257,1.591,7.107,1.591,7.107s0.26,0.044,0.723,0.085
			c0.461,0.044,1.12,0.109,1.91,0.188c1.582,0.148,3.691,0.35,5.8,0.548c2.117,0.1,4.233,0.199,5.821,0.271
			c0.793,0.034,1.455,0.062,1.918,0.083c0.462,0.022,0.728,0.018,0.728,0.018s1.092-2.724,2.571-6.813
			c1.485-4.097,3.313-9.531,4.895-15.015c0.682-2.367,1.314-4.727,1.887-6.984c1.555-0.067,3.024-0.157,4.379-0.254
			c2.74-0.302,5.024-0.523,6.62-0.723c1.587-0.25,2.493-0.393,2.493-0.393s0.907-0.144,2.494-0.392
			c0.396-0.068,0.838-0.124,1.313-0.216c0.475-0.102,0.986-0.207,1.535-0.322c1.095-0.23,2.331-0.486,3.679-0.771
			c1.324-0.308,2.752-0.662,4.256-1.063c1.229,1.976,2.543,4.03,3.906,6.078c1.598,2.413,3.225,4.734,4.801,6.918
			c1.573,2.181,3.088,4.203,4.412,5.925c2.648,3.447,4.516,5.706,4.516,5.706s0.252-0.08,0.694-0.225
			c0.438-0.159,1.062-0.388,1.811-0.66c1.493-0.559,3.487-1.299,5.48-2.038c1.955-0.831,3.913-1.664,5.38-2.288
			c0.731-0.315,1.341-0.579,1.768-0.766c0.419-0.201,0.658-0.315,0.658-0.315s-0.2-2.925-0.643-7.245
			c-0.224-2.159-0.514-4.668-0.867-7.334c-0.353-2.659-0.776-5.482-1.273-8.328c-0.415-2.425-0.873-4.82-1.338-7.098
			c1.367-0.744,2.647-1.469,3.819-2.157c2.344-1.447,4.337-2.592,5.642-3.533c1.33-0.901,2.09-1.417,2.09-1.417
			s0.19-0.128,0.545-0.37c0.352-0.25,0.892-0.579,1.533-1.062c1.276-0.979,3.146-2.314,5.305-4.023
			c1.066-0.846,2.201-1.784,3.379-2.797c1.974,1.256,4.058,2.541,6.147,3.767c4.902,2.899,9.989,5.632,13.885,7.601
			c1.951,0.996,3.568,1.772,4.711,2.316c1.146,0.539,1.8,0.848,1.8,0.848s0.751-0.75,1.875-1.877
			c0.562-0.566,1.216-1.223,1.917-1.93c0.702-0.704,1.396-1.512,2.116-2.29c1.417-1.579,2.872-3.128,3.891-4.352
			c1.015-1.228,1.69-2.047,1.69-2.047s-1.434-2.541-3.688-6.231c-2.225-3.673-5.413-8.554-8.724-13.214
			c-1.414-2-2.848-3.953-4.245-5.803c0.469-0.608,0.888-1.227,1.287-1.83c0.414-0.614,0.814-1.21,1.2-1.781
			c1.578-2.261,2.729-4.249,3.563-5.622c0.832-1.375,1.307-2.158,1.307-2.158s0.437-0.809,1.202-2.223
			c0.755-1.418,1.899-3.411,3.042-5.919c0.569-1.234,1.255-2.538,1.858-3.973c2.298,0.265,4.712,0.51,7.148,0.717
			c2.85,0.243,5.721,0.434,8.429,0.571c1.357,0.057,2.669,0.113,3.913,0.166c1.234,0.027,2.401,0.055,3.479,0.079
			c4.32,0.067,7.234,0.011,7.234,0.011s0.361-1,0.902-2.501c0.134-0.375,0.28-0.782,0.434-1.212
			c0.136-0.436,0.279-0.896,0.429-1.373c0.293-0.952,0.605-1.969,0.918-2.985c0.311-1.018,0.619-2.033,0.909-2.987
			c0.273-0.961,0.485-1.864,0.688-2.636c0.39-1.546,0.65-2.576,0.65-2.576s-2.389-1.661-6.014-4.001
			C315.374,201.006,310.4,198.007,305.403,195.256z M261.525,223.798c-0.679,1.115-1.603,2.737-2.895,4.569
			c-0.313,0.465-0.637,0.949-0.974,1.45c-0.33,0.506-0.679,1.023-1.075,1.528c-0.769,1.029-1.576,2.115-2.413,3.241
			c-0.872,1.095-1.813,2.196-2.737,3.341l-0.701,0.854l-0.753,0.822c-0.499,0.552-1.003,1.105-1.505,1.659
			c-4.053,4.397-8.499,8.426-12.016,11.213c-1.758,1.392-3.284,2.475-4.317,3.278c-0.521,0.395-0.965,0.659-1.249,0.861
			c-0.291,0.196-0.446,0.3-0.446,0.3s-0.62,0.42-1.702,1.155c-1.054,0.779-2.688,1.689-4.59,2.877
			c-3.867,2.261-9.17,5.042-14.719,7.252c-5.551,2.206-11.302,3.826-15.653,4.847c-1.093,0.228-2.098,0.437-2.986,0.623
			c-0.444,0.095-0.86,0.185-1.244,0.266c-0.387,0.074-0.746,0.116-1.067,0.17c-1.291,0.201-2.026,0.317-2.026,0.317
			s-0.736,0.118-2.024,0.325c-1.297,0.142-3.152,0.343-5.376,0.585c-4.468,0.316-10.452,0.502-16.448,0.1
			c-5.994-0.442-11.893-1.467-16.272-2.406c-2.167-0.553-3.976-1.014-5.242-1.335c-1.247-0.386-1.958-0.607-1.958-0.607
			s-0.713-0.217-1.961-0.598c-0.312-0.098-0.661-0.191-1.032-0.319c-0.369-0.135-0.769-0.283-1.194-0.438
			c-0.855-0.309-1.818-0.657-2.87-1.035c-4.165-1.622-9.63-4.033-14.815-6.997c-5.183-2.968-10.042-6.466-13.555-9.247
			c-1.717-1.441-3.206-2.574-4.142-3.492c-0.97-0.88-1.522-1.383-1.522-1.383s-0.138-0.123-0.399-0.359
			c-0.254-0.241-0.656-0.564-1.116-1.027c-0.911-0.94-2.271-2.225-3.816-3.852c-3.089-3.253-6.926-7.866-10.322-12.788
			c-0.42-0.62-0.84-1.239-1.258-1.854l-0.629-0.919l-0.575-0.947c-0.755-1.262-1.532-2.485-2.242-3.694
			c-0.669-1.23-1.317-2.418-1.932-3.546c-0.322-0.556-0.595-1.116-0.851-1.662c-0.262-0.544-0.516-1.07-0.76-1.573
			c-1.023-1.995-1.708-3.731-2.226-4.93c-0.516-1.2-0.811-1.886-0.811-1.886s-0.257-0.699-0.707-1.926
			c-0.442-1.227-1.149-2.953-1.772-5.105c-0.317-1.071-0.741-2.209-1.058-3.452c-0.324-1.239-0.666-2.546-1.02-3.896
			c-0.596-2.73-1.268-5.638-1.668-8.594c-0.119-0.738-0.237-1.474-0.356-2.206c-0.076-0.74-0.153-1.476-0.229-2.204
			c-0.08-0.733-0.158-1.455-0.234-2.173c-0.037-0.356-0.086-0.711-0.113-1.067c-0.019-0.354-0.037-0.706-0.055-1.056
			c-0.08-1.4-0.158-2.75-0.23-4.033c-0.008-1.284-0.015-2.501-0.021-3.622c-0.073-2.244,0.11-4.116,0.144-5.428
			c0.054-1.313,0.085-2.062,0.085-2.062s0.074-0.748,0.205-2.052c0.15-1.301,0.232-3.184,0.618-5.393
			c0.165-1.112,0.343-2.313,0.531-3.584c0.251-1.259,0.519-2.585,0.795-3.959c0.066-0.343,0.134-0.691,0.202-1.04
			c0.078-0.347,0.176-0.691,0.263-1.04c0.178-0.699,0.356-1.405,0.537-2.116c0.178-0.711,0.358-1.431,0.538-2.151
			c0.22-0.709,0.44-1.421,0.661-2.134c0.813-2.873,1.885-5.657,2.857-8.276c0.541-1.29,1.063-2.534,1.558-3.717
			c0.488-1.184,1.068-2.251,1.531-3.268c0.917-2.041,1.861-3.654,2.47-4.805c0.617-1.152,0.97-1.807,0.97-1.807
			s0.388-0.638,1.068-1.753c0.678-1.114,1.603-2.738,2.896-4.567c0.312-0.466,0.637-0.95,0.973-1.451
			c0.33-0.507,0.679-1.024,1.076-1.529c0.768-1.028,1.576-2.114,2.411-3.239c0.873-1.096,1.813-2.199,2.738-3.342l0.702-0.856
			l0.752-0.822c0.501-0.552,1.003-1.105,1.506-1.658c4.054-4.398,8.5-8.427,12.017-11.215c1.759-1.391,3.284-2.474,4.317-3.276
			c0.521-0.397,0.964-0.66,1.25-0.863c0.29-0.196,0.446-0.301,0.446-0.301s0.619-0.419,1.701-1.153
			c1.056-0.778,2.689-1.69,4.591-2.876c3.869-2.262,9.171-5.043,14.72-7.253c5.55-2.207,11.3-3.825,15.652-4.848
			c1.095-0.228,2.099-0.436,2.987-0.621c0.443-0.095,0.86-0.183,1.244-0.266c0.387-0.076,0.746-0.117,1.066-0.17
			c1.29-0.201,2.027-0.316,2.027-0.316s0.736-0.12,2.024-0.327c1.297-0.14,3.152-0.343,5.376-0.585
			c4.468-0.315,10.451-0.501,16.448-0.098c5.995,0.443,11.892,1.468,16.27,2.406c2.169,0.553,3.978,1.013,5.243,1.334
			c1.246,0.388,1.957,0.607,1.957,0.607s0.716,0.219,1.963,0.599c0.313,0.099,0.662,0.19,1.032,0.32
			c0.368,0.134,0.769,0.281,1.195,0.438c0.854,0.307,1.818,0.656,2.869,1.035c4.165,1.621,9.632,4.033,14.817,6.996
			c5.184,2.968,10.043,6.466,13.557,9.248c1.717,1.441,3.204,2.573,4.14,3.491c0.97,0.879,1.523,1.383,1.523,1.383
			s0.139,0.124,0.399,0.359c0.254,0.241,0.654,0.564,1.117,1.027c0.909,0.94,2.269,2.227,3.814,3.852
			c3.091,3.253,6.925,7.866,10.321,12.791c0.421,0.617,0.84,1.236,1.259,1.852l0.629,0.92l0.575,0.948
			c0.756,1.26,1.53,2.485,2.242,3.692c0.67,1.23,1.317,2.418,1.932,3.546c0.322,0.555,0.595,1.115,0.852,1.662
			c0.262,0.543,0.516,1.069,0.759,1.574c1.022,1.993,1.71,3.73,2.227,4.931c0.517,1.199,0.812,1.885,0.812,1.885
			s0.257,0.701,0.706,1.925c0.443,1.227,1.15,2.957,1.772,5.106c0.317,1.07,0.741,2.21,1.058,3.452
			c0.324,1.239,0.665,2.547,1.021,3.898c0.595,2.729,1.267,5.637,1.667,8.595c0.118,0.735,0.236,1.471,0.355,2.204
			c0.078,0.74,0.154,1.476,0.23,2.207c0.08,0.73,0.156,1.454,0.234,2.17c0.037,0.356,0.086,0.71,0.113,1.066
			c0.019,0.356,0.036,0.707,0.054,1.059c0.081,1.398,0.157,2.75,0.231,4.031c0.008,1.285,0.015,2.501,0.021,3.623
			c0.074,2.245-0.11,4.117-0.145,5.428c-0.054,1.312-0.085,2.062-0.085,2.062s-0.074,0.746-0.206,2.052
			c-0.151,1.3-0.231,3.183-0.617,5.394c-0.164,1.11-0.343,2.311-0.53,3.583c-0.253,1.26-0.52,2.588-0.795,3.961
			c-0.068,0.343-0.135,0.69-0.202,1.04c-0.079,0.346-0.177,0.691-0.262,1.038c-0.178,0.7-0.357,1.405-0.538,2.117
			c-0.178,0.711-0.357,1.43-0.539,2.151c-0.22,0.709-0.439,1.423-0.661,2.133c-0.812,2.872-1.884,5.658-2.856,8.275
			c-0.541,1.291-1.063,2.536-1.557,3.717c-0.487,1.185-1.068,2.253-1.531,3.27c-0.918,2.041-1.861,3.655-2.471,4.808
			c-0.618,1.148-0.971,1.806-0.971,1.806S262.205,222.683,261.525,223.798z"/>
	</g>
</g>
<g id="Capa_10">
	<path fill="#EBD2AF" d="M179.048,159.314h-56.516c-1.419,0-2.569,1.15-2.569,2.567v56.516c0,1.42,1.15,2.569,2.569,2.569h56.516
		c1.418,0,2.568-1.152,2.568-2.569v-56.513C181.617,160.464,180.467,159.314,179.048,159.314z"/>
	<rect x="127.671" y="167.021" fill="#DEC3A1" width="46.24" height="46.238"/>
	<g>
		<rect x="127.671" y="174.728" fill="#D2B493" width="46.24" height="5.138"/>
		<rect x="127.671" y="200.416" fill="#D2B493" width="46.24" height="5.139"/>
		<rect x="127.671" y="187.572" fill="#D2B493" width="46.24" height="5.138"/>
	</g>
	<path fill="#F0DCBE" d="M181.617,156.746V100.23c0-1.419-1.15-2.569-2.569-2.569h-56.515c-1.419,0-2.569,1.15-2.569,2.569v56.515
		c0,1.42,1.15,2.569,2.569,2.569h56.516C180.467,159.314,181.617,158.164,181.617,156.746z"/>
	<rect x="127.671" y="105.368" fill="#EBD2AF" width="46.24" height="46.239"/>
	<g>
		<rect x="161.066" y="105.368" fill="#D2B493" width="5.138" height="46.239"/>
		<rect x="135.376" y="105.368" fill="#D2B493" width="5.137" height="46.239"/>
		<rect x="148.221" y="105.368" fill="#D2B493" width="5.138" height="46.239"/>
	</g>
	<circle fill="#5B5D6E" cx="234.278" cy="232.529" r="6.423"/>
	<path fill="#C7CFE2" d="M234.278,234.615L234.278,234.615c-1.286,0-2.396-0.909-2.649-2.173l-1.781-8.905h8.863l-1.782,8.905
		C236.677,233.706,235.567,234.615,234.278,234.615z"/>
	<path fill="#BDBDBD" d="M243.271,226.105H112.256c-1.42,0-2.568-1.149-2.568-2.568v-90.792c0-2.061-0.802-3.997-2.257-5.451
		l-9.835-9.835c-1.003-1.003-1.003-2.628,0-3.632c1.003-1.002,2.629-1.002,3.632,0l9.834,9.834c2.426,2.426,3.763,5.653,3.763,9.084
		v88.223h128.445c1.42,0,2.568,1.149,2.568,2.568C245.839,224.956,244.691,226.105,243.271,226.105z"/>
	<circle fill="#5B5D6E" cx="109.688" cy="226.106" r="12.846"/>
	<g>
		<circle fill="#AB47BC" cx="109.688" cy="226.106" r="7.708"/>
		<path fill="#AB47BC" d="M107.119,125.919c-0.658,0-1.315-0.251-1.817-0.753l-7.707-7.706c-1.003-1.003-1.003-2.628,0-3.632
			c1.003-1.002,2.629-1.002,3.632,0l7.707,7.706c1.003,1.003,1.003,2.629,0,3.633C108.433,125.667,107.775,125.919,107.119,125.919z
			"/>
	</g>
	<path fill="#F0DCBE" d="M222.72,218.398v-82.204c0-1.418-1.15-2.569-2.569-2.569h-35.965c-1.418,0-2.569,1.152-2.569,2.569v82.204
		c0,1.419,1.15,2.569,2.569,2.569h35.965C221.569,220.968,222.72,219.817,222.72,218.398z"/>
	<rect x="189.325" y="141.332" fill="#EBD2AF" width="25.689" height="71.929"/>
	<g>
		<rect x="189.325" y="149.039" fill="#D2B493" width="25.689" height="5.137"/>
		<rect x="189.325" y="161.884" fill="#D2B493" width="25.689" height="5.138"/>
		<rect x="189.325" y="174.728" fill="#D2B493" width="25.689" height="5.138"/>
		<rect x="189.325" y="187.572" fill="#D2B493" width="25.689" height="5.138"/>
		<rect x="189.325" y="200.416" fill="#D2B493" width="25.689" height="5.139"/>
	</g>
	<circle fill="#8E24AA" cx="109.688" cy="226.106" r="2.569"/>
</g>
</svg>
