<?xml version="1.0" encoding="utf-8"?>
<!-- Generator: Adobe Illustrator 16.0.3, SVG Export Plug-In . SVG Version: 6.00 Build 0)  -->
<!DOCTYPE svg PUBLIC "-//W3C//DTD SVG 1.1//EN" "http://www.w3.org/Graphics/SVG/1.1/DTD/svg11.dtd">
<svg version="1.1" id="Capa_1" xmlns="http://www.w3.org/2000/svg" xmlns:xlink="http://www.w3.org/1999/xlink" x="0px" y="0px"
	 width="337.054px" height="336.973px" viewBox="0 0 337.054 336.973" enable-background="new 0 0 337.054 336.973"
	 xml:space="preserve">

	 <style>
			@keyframes spin { 
				0% { transform: rotate(0deg);}
				100% { transform: rotate(360deg);}
			}

			.gear {
				animation: spin 20s infinite linear;
				display: block;
				transform-origin: 50% 50%;
			}
		</style>
<g>
	<g>
		
			<linearGradient id="SVGID_1_" gradientUnits="userSpaceOnUse" x1="151.3423" y1="-102.2075" x2="382.2817" y2="128.7319" gradientTransform="matrix(1 0 0 -1 -97.6602 181.04)">
			<stop  offset="0" style="stop-color:#009688"/>
			<stop  offset="1" style="stop-color:#00897B"/>
		</linearGradient>
		<path class="gear" fill="url(#SVGID_1_)" d="M310.029,161.625c-2.412-0.667-4.802-1.29-7.107-1.852c-0.118-1.587-0.267-3.086-0.382-4.474
			c-0.189-2.814-0.611-5.132-0.813-6.763c-0.229-1.63-0.355-2.561-0.355-2.561s-0.177-0.923-0.486-2.538
			c-0.332-1.611-0.677-3.941-1.401-6.667c-0.335-1.35-0.677-2.818-1.074-4.358c2.001-1.272,4.066-2.631,6.137-4.035
			c4.831-3.276,9.614-6.805,13.118-9.546c3.472-2.727,5.747-4.646,5.747-4.646s-0.363-1.026-0.906-2.564
			c-0.28-0.766-0.581-1.67-0.953-2.621c-0.384-0.944-0.796-1.951-1.209-2.959c-0.415-1.006-0.829-2.012-1.22-2.955
			c-0.196-0.471-0.385-0.926-0.565-1.357c-0.199-0.423-0.385-0.823-0.559-1.194c-0.695-1.478-1.154-2.464-1.154-2.464
			s-2.977,0.221-7.373,0.699c-1.096,0.128-2.28,0.266-3.536,0.412c-1.263,0.172-2.595,0.354-3.971,0.542
			c-2.747,0.396-5.653,0.865-8.533,1.383c-2.466,0.442-4.901,0.923-7.22,1.411c-0.748-1.404-1.572-2.668-2.27-3.871
			c-1.402-2.447-2.757-4.369-3.662-5.743c-0.913-1.367-1.436-2.148-1.436-2.148s-0.559-0.755-1.537-2.078
			c-0.979-1.321-2.341-3.238-4.165-5.389c-0.445-0.546-0.909-1.114-1.39-1.703c-0.465-0.576-0.952-1.166-1.485-1.742
			c1.245-2.018,2.523-4.144,3.772-6.315c2.93-5.063,5.715-10.341,7.634-14.294c1.946-3.975,3.163-6.7,3.163-6.7
			s-0.766-0.77-1.915-1.924c-1.152-1.15-2.783-2.59-4.378-4.064c-0.809-0.725-1.592-1.48-2.376-2.131
			c-0.781-0.653-1.509-1.262-2.135-1.783c-1.254-1.041-2.091-1.734-2.091-1.734s-0.637,0.376-1.751,1.035
			c-1.113,0.662-2.688,1.606-4.582,2.806c-3.781,2.377-8.705,5.646-13.427,9.064c-2.013,1.449-4.014,2.958-5.903,4.423
			c-1.299-0.92-2.544-1.768-3.71-2.527c-2.362-1.538-4.394-2.721-5.787-3.596c-0.7-0.431-1.281-0.717-1.662-0.937
			c-0.387-0.212-0.593-0.326-0.593-0.326s-0.823-0.453-2.264-1.245c-1.42-0.836-3.56-1.811-6.084-3.063
			c-1.26-0.589-2.634-1.207-4.098-1.836c0.257-2.365,0.493-4.848,0.688-7.356c0.236-2.948,0.398-5.867,0.506-8.608
			c0.109-2.749,0.164-5.332,0.186-7.554c0.044-4.446-0.03-7.444-0.03-7.444s-0.256-0.094-0.701-0.261
			c-0.453-0.147-1.099-0.357-1.873-0.61c-1.555-0.496-3.628-1.158-5.701-1.819c-2.102-0.565-4.202-1.131-5.777-1.556
			c-0.788-0.208-1.446-0.381-1.906-0.504c-0.466-0.104-0.73-0.163-0.73-0.163s-1.688,2.481-4.059,6.244
			c-1.185,1.881-2.536,4.083-3.935,6.456c-1.397,2.375-2.834,4.895-4.233,7.506c-1.194,2.216-2.339,4.436-3.403,6.563
			c-1.569-0.264-3.059-0.49-4.437-0.677c-1.401-0.159-2.684-0.306-3.822-0.435c-0.568-0.064-1.102-0.125-1.594-0.182
			c-0.493-0.048-0.947-0.064-1.358-0.094c-1.641-0.104-2.578-0.163-2.578-0.163s-0.938-0.059-2.579-0.164
			c-1.643-0.052-3.993-0.06-6.811-0.105c-1.391,0.027-2.898,0.077-4.488,0.153c-0.801-2.244-1.669-4.588-2.588-6.937
			c-2.132-5.436-4.512-10.801-6.413-14.833c-1.897-4.027-3.268-6.697-3.268-6.697s-0.271,0.019-0.741,0.087
			c-0.471,0.064-1.142,0.156-1.947,0.266c-1.612,0.226-3.759,0.527-5.905,0.828c-2.13,0.404-4.261,0.808-5.859,1.111
			c-0.798,0.154-1.463,0.283-1.929,0.374c-0.465,0.085-0.729,0.154-0.729,0.154s-0.441,2.97-0.945,7.393
			c-0.506,4.43-1.039,10.274-1.313,16.108c-0.116,2.519-0.187,5.018-0.224,7.4c-1.53,0.437-2.973,0.873-4.299,1.295
			c-2.655,0.947-4.877,1.709-6.417,2.287c-1.521,0.626-2.389,0.983-2.389,0.983s-0.87,0.357-2.39,0.983
			c-0.379,0.16-0.805,0.321-1.257,0.525c-0.446,0.212-0.931,0.44-1.45,0.685c-1.037,0.488-2.204,1.038-3.479,1.638
			c-1.245,0.62-2.583,1.311-3.986,2.066c-1.691-1.675-3.487-3.409-5.329-5.124c-2.163-2.024-4.333-3.951-6.42-5.75
			c-2.083-1.798-4.07-3.451-5.797-4.852c-3.455-2.803-5.849-4.611-5.849-4.611s-0.232,0.142-0.638,0.389
			c-0.396,0.262-0.965,0.638-1.644,1.089c-1.356,0.908-3.165,2.117-4.974,3.327c-1.75,1.292-3.5,2.584-4.813,3.553
			c-0.653,0.489-1.198,0.896-1.578,1.182c-0.37,0.299-0.58,0.472-0.58,0.472s0.892,2.863,2.359,7.06
			c0.734,2.098,1.616,4.526,2.602,7.095c0.981,2.564,2.072,5.275,3.243,7.99c0.989,2.314,2.011,4.59,3.013,6.748
			c-1.184,1.064-2.287,2.091-3.292,3.053c-1.989,1.997-3.703,3.607-4.778,4.855c-1.11,1.213-1.745,1.906-1.745,1.906
			s-0.159,0.174-0.456,0.498c-0.29,0.331-0.749,0.788-1.274,1.421c-1.037,1.275-2.583,3.048-4.326,5.262
			c-0.86,1.093-1.768,2.296-2.703,3.584c-2.261-0.781-4.64-1.567-7.01-2.293c-5.569-1.723-11.281-3.238-15.624-4.275
			c-2.18-0.528-3.975-0.917-5.24-1.186c-1.268-0.266-1.993-0.418-1.993-0.418s-0.569,0.926-1.422,2.313
			c-0.425,0.694-0.919,1.505-1.451,2.375c-0.532,0.868-1.03,1.835-1.563,2.781c-1.038,1.909-2.119,3.794-2.842,5.255
			c-0.719,1.463-1.198,2.439-1.198,2.439s2.031,2.189,5.15,5.329c3.084,3.129,7.417,7.231,11.817,11.087
			c1.881,1.654,3.773,3.259,5.602,4.77c-0.322,0.716-0.594,1.431-0.848,2.126c-0.267,0.712-0.523,1.399-0.77,2.059
			c-1.038,2.624-1.711,4.875-2.215,6.441c-0.502,1.565-0.79,2.461-0.79,2.461s-0.244,0.908-0.669,2.496
			c-0.416,1.591-1.083,3.846-1.625,6.613c-0.274,1.364-0.648,2.824-0.908,4.396c-2.35,0.281-4.812,0.608-7.288,0.981
			c-2.895,0.434-5.797,0.923-8.525,1.43c-1.365,0.265-2.684,0.52-3.934,0.763c-1.235,0.265-2.404,0.513-3.482,0.745
			c-4.318,0.958-7.206,1.705-7.206,1.705s-0.122,1.082-0.305,2.705c-0.044,0.406-0.093,0.845-0.145,1.31
			c-0.032,0.467-0.066,0.96-0.102,1.468c-0.065,1.019-0.137,2.103-0.206,3.19c-0.067,1.085-0.133,2.173-0.195,3.19
			c-0.045,1.02-0.041,1.971-0.06,2.787c-0.021,1.631-0.037,2.719-0.037,2.719s2.772,1.087,6.935,2.556
			c4.197,1.472,9.861,3.277,15.487,4.831c2.413,0.667,4.803,1.289,7.106,1.851c0.118,1.587,0.266,3.088,0.382,4.474
			c0.189,2.814,0.611,5.132,0.813,6.764c0.225,1.627,0.356,2.56,0.356,2.56s0.176,0.923,0.485,2.539
			c0.333,1.611,0.676,3.941,1.401,6.667c0.334,1.351,0.677,2.819,1.073,4.36c-2.002,1.271-4.065,2.628-6.136,4.033
			c-4.831,3.278-9.614,6.807-13.119,9.547c-3.47,2.728-5.748,4.646-5.748,4.646s0.364,1.025,0.909,2.563
			c0.279,0.768,0.581,1.669,0.95,2.622c0.385,0.943,0.799,1.95,1.209,2.957c0.415,1.006,0.831,2.013,1.219,2.957
			c0.197,0.47,0.387,0.927,0.567,1.358c0.198,0.422,0.385,0.823,0.557,1.191c0.694,1.479,1.156,2.464,1.156,2.464
			s2.976-0.219,7.372-0.699c1.095-0.128,2.282-0.265,3.537-0.411c1.262-0.173,2.594-0.353,3.97-0.542
			c2.747-0.396,5.653-0.863,8.534-1.381c2.465-0.444,4.902-0.924,7.218-1.41c0.749,1.403,1.571,2.667,2.27,3.87
			c1.401,2.448,2.757,4.368,3.662,5.741c0.913,1.367,1.436,2.149,1.436,2.149s0.559,0.755,1.536,2.078
			c0.981,1.32,2.34,3.237,4.166,5.389c0.446,0.546,0.91,1.114,1.391,1.703c0.464,0.576,0.951,1.167,1.486,1.741
			c-1.249,2.018-2.524,4.145-3.774,6.315c-2.931,5.063-5.715,10.34-7.634,14.293c-1.946,3.975-3.165,6.7-3.165,6.7
			s0.767,0.771,1.917,1.925c1.154,1.152,2.783,2.59,4.378,4.064c0.808,0.726,1.592,1.479,2.374,2.132
			c0.783,0.651,1.512,1.261,2.137,1.782c1.254,1.041,2.089,1.734,2.089,1.734s0.637-0.376,1.753-1.035
			c1.111-0.663,2.687-1.606,4.582-2.806c3.78-2.378,8.703-5.646,13.424-9.064c2.014-1.447,4.015-2.956,5.904-4.423
			c1.297,0.921,2.544,1.771,3.71,2.528c2.361,1.54,4.394,2.722,5.785,3.597c0.701,0.431,1.283,0.717,1.664,0.936
			c0.387,0.213,0.592,0.326,0.592,0.326s0.824,0.453,2.265,1.245c1.418,0.836,3.558,1.811,6.083,3.064
			c1.259,0.589,2.633,1.207,4.096,1.835c-0.256,2.365-0.493,4.849-0.688,7.359c-0.235,2.946-0.4,5.865-0.506,8.606
			c-0.109,2.75-0.165,5.333-0.187,7.556c-0.043,4.445,0.032,7.443,0.032,7.443s0.255,0.095,0.701,0.26
			c0.453,0.148,1.1,0.358,1.875,0.611c1.554,0.496,3.627,1.157,5.699,1.818c2.102,0.565,4.204,1.131,5.778,1.556
			c0.79,0.207,1.447,0.382,1.908,0.504c0.463,0.103,0.729,0.162,0.729,0.162s1.688-2.479,4.06-6.243
			c1.185-1.881,2.537-4.083,3.934-6.456c1.398-2.374,2.836-4.894,4.234-7.506c1.194-2.216,2.339-4.435,3.402-6.563
			c1.57,0.265,3.06,0.49,4.437,0.678c1.4,0.159,2.686,0.305,3.822,0.434c0.57,0.064,1.102,0.127,1.594,0.181
			c0.493,0.051,0.948,0.065,1.358,0.096c1.641,0.104,2.579,0.163,2.579,0.163s0.938,0.061,2.579,0.165
			c1.643,0.052,3.993,0.061,6.811,0.105c1.391-0.027,2.896-0.076,4.488-0.154c0.8,2.244,1.668,4.589,2.587,6.936
			c2.133,5.436,4.513,10.803,6.413,14.835c1.896,4.025,3.268,6.696,3.268,6.696s0.272-0.019,0.741-0.087
			c0.47-0.065,1.141-0.156,1.947-0.267c1.609-0.226,3.757-0.527,5.904-0.828c2.131-0.403,4.26-0.808,5.86-1.11
			c0.796-0.155,1.462-0.284,1.928-0.374c0.467-0.085,0.729-0.155,0.729-0.155s0.441-2.968,0.945-7.392
			c0.505-4.429,1.038-10.275,1.313-16.107c0.117-2.52,0.187-5.019,0.223-7.401c1.531-0.438,2.974-0.874,4.301-1.293
			c2.655-0.948,4.877-1.711,6.417-2.287c1.521-0.625,2.389-0.983,2.389-0.983s0.87-0.357,2.391-0.982
			c0.378-0.159,0.805-0.322,1.257-0.527c0.449-0.21,0.931-0.44,1.45-0.682c1.036-0.49,2.205-1.039,3.48-1.64
			c1.245-0.619,2.583-1.313,3.983-2.066c1.692,1.675,3.487,3.408,5.332,5.125c2.161,2.023,4.332,3.949,6.418,5.749
			c2.084,1.798,4.071,3.449,5.798,4.852c3.454,2.803,5.849,4.61,5.849,4.61s0.233-0.141,0.639-0.389
			c0.397-0.262,0.964-0.637,1.645-1.09c1.356-0.906,3.164-2.116,4.973-3.327c1.752-1.292,3.502-2.584,4.815-3.553
			c0.652-0.488,1.196-0.895,1.577-1.18c0.37-0.3,0.581-0.472,0.581-0.472s-0.892-2.862-2.358-7.059
			c-0.735-2.098-1.617-4.525-2.603-7.096c-0.981-2.563-2.073-5.273-3.244-7.99c-0.988-2.313-2.01-4.589-3.012-6.747
			c1.182-1.065,2.285-2.09,3.291-3.052c1.99-1.998,3.703-3.609,4.778-4.856c1.111-1.213,1.745-1.907,1.745-1.907
			s0.159-0.172,0.456-0.496c0.29-0.331,0.749-0.788,1.274-1.421c1.038-1.276,2.581-3.049,4.326-5.263
			c0.859-1.094,1.767-2.297,2.702-3.585c2.261,0.782,4.642,1.568,7.011,2.292c5.57,1.725,11.28,3.238,15.625,4.276
			c2.18,0.528,3.974,0.916,5.24,1.186c1.267,0.266,1.992,0.418,1.992,0.418s0.568-0.926,1.421-2.312
			c0.426-0.695,0.922-1.508,1.45-2.376c0.533-0.867,1.033-1.834,1.565-2.781c1.037-1.909,2.12-3.794,2.843-5.256
			c0.716-1.463,1.197-2.438,1.197-2.438s-2.029-2.19-5.15-5.329c-3.085-3.129-7.417-7.232-11.817-11.087
			c-1.879-1.656-3.772-3.26-5.602-4.771c0.322-0.716,0.596-1.431,0.849-2.127c0.267-0.71,0.524-1.399,0.771-2.059
			c1.036-2.624,1.709-4.876,2.213-6.44c0.503-1.566,0.79-2.462,0.79-2.462s0.242-0.907,0.669-2.495
			c0.415-1.59,1.08-3.845,1.624-6.613c0.274-1.363,0.648-2.823,0.908-4.395c2.351-0.281,4.812-0.609,7.287-0.98
			c2.896-0.436,5.799-0.924,8.527-1.43c1.364-0.265,2.683-0.521,3.936-0.763c1.234-0.265,2.402-0.515,3.481-0.747
			c4.315-0.957,7.205-1.702,7.205-1.702s0.121-1.083,0.305-2.707c0.045-0.404,0.092-0.843,0.145-1.31
			c0.031-0.466,0.065-0.958,0.101-1.467c0.066-1.018,0.137-2.104,0.206-3.19c0.065-1.086,0.133-2.172,0.196-3.19
			c0.044-1.02,0.04-1.972,0.059-2.788c0.021-1.631,0.037-2.72,0.037-2.72s-2.772-1.086-6.936-2.555
			C321.319,164.983,315.656,163.179,310.029,161.625z M273.115,200.443c-0.412,1.271-0.947,3.104-1.8,5.234
			c-0.201,0.538-0.408,1.097-0.625,1.677c-0.209,0.579-0.434,1.18-0.71,1.774c-0.519,1.207-1.065,2.479-1.632,3.798
			c-0.608,1.297-1.283,2.617-1.932,3.977l-0.496,1.02l-0.555,0.997c-0.366,0.669-0.737,1.339-1.106,2.008
			c-2.992,5.34-6.462,10.402-9.302,14.012c-1.42,1.804-2.684,3.241-3.522,4.288c-0.425,0.518-0.804,0.884-1.039,1.153
			c-0.241,0.265-0.372,0.405-0.372,0.405s-0.518,0.563-1.422,1.551c-0.865,1.026-2.275,2.32-3.888,3.952
			c-3.314,3.168-7.933,7.194-12.934,10.71c-5.002,3.514-10.343,6.49-14.433,8.538c-1.035,0.486-1.984,0.932-2.825,1.328
			c-0.419,0.2-0.812,0.387-1.175,0.56c-0.367,0.167-0.714,0.295-1.023,0.424c-1.234,0.506-1.94,0.795-1.94,0.795
			s-0.705,0.293-1.938,0.804c-1.258,0.45-3.057,1.09-5.213,1.858c-4.374,1.374-10.287,2.978-16.352,3.997
			c-6.071,0.981-12.187,1.36-16.769,1.463c-2.29-0.034-4.199-0.063-5.534-0.086c-1.333-0.09-2.094-0.139-2.094-0.139
			s-0.762-0.049-2.094-0.129c-0.333-0.025-0.704-0.032-1.103-0.075c-0.4-0.047-0.831-0.099-1.293-0.152
			c-0.923-0.104-1.965-0.223-3.102-0.351c-4.532-0.628-10.545-1.731-16.41-3.451c-5.864-1.726-11.531-4.057-15.687-5.991
			c-2.051-1.03-3.804-1.804-4.952-2.495c-1.173-0.646-1.844-1.014-1.844-1.014s-0.167-0.093-0.482-0.265
			c-0.31-0.18-0.787-0.406-1.355-0.758c-1.129-0.724-2.788-1.679-4.713-2.931c-3.846-2.509-8.758-6.189-13.307-10.284
			c-0.565-0.518-1.128-1.033-1.692-1.549l-0.845-0.767l-0.797-0.806c-1.052-1.078-2.114-2.111-3.107-3.145
			c-0.96-1.066-1.886-2.096-2.765-3.072c-0.454-0.478-0.857-0.972-1.242-1.456c-0.39-0.479-0.766-0.941-1.129-1.387
			c-1.491-1.743-2.587-3.308-3.385-4.381c-0.799-1.07-1.256-1.684-1.256-1.684s-0.421-0.636-1.161-1.749
			c-0.731-1.116-1.843-2.67-2.972-4.663c-0.571-0.991-1.262-2.024-1.872-3.186c-0.617-1.156-1.267-2.376-1.94-3.639
			c-1.239-2.575-2.597-5.311-3.698-8.16c-0.292-0.706-0.585-1.409-0.876-2.11c-0.253-0.72-0.504-1.434-0.751-2.142
			c-0.252-0.71-0.502-1.412-0.748-2.106c-0.121-0.346-0.254-0.688-0.366-1.035c-0.103-0.348-0.204-0.696-0.305-1.039
			c-0.412-1.374-0.809-2.701-1.186-3.959c-0.313-1.278-0.608-2.487-0.88-3.602c-0.605-2.217-0.867-4.125-1.145-5.438
			c-0.257-1.319-0.403-2.072-0.403-2.072s-0.102-0.762-0.281-2.091c-0.16-1.333-0.525-3.224-0.664-5.518
			c-0.099-1.144-0.206-2.384-0.321-3.694c-0.048-1.313-0.096-2.698-0.148-4.129c-0.015-0.359-0.03-0.72-0.045-1.084
			c-0.005-0.364,0.01-0.729,0.015-1.097c0.011-0.737,0.021-1.483,0.033-2.234c0.008-0.752,0.016-1.51,0.024-2.271
			c0.051-0.758,0.102-1.519,0.152-2.28c0.128-3.052,0.535-6.079,0.884-8.915c0.232-1.413,0.456-2.775,0.669-4.07
			c0.205-1.295,0.528-2.494,0.75-3.617c0.428-2.25,0.985-4.078,1.32-5.371c0.341-1.291,0.537-2.029,0.537-2.029
			s0.235-0.727,0.647-1.997c0.412-1.271,0.947-3.106,1.8-5.236c0.2-0.537,0.409-1.096,0.625-1.675
			c0.209-0.582,0.433-1.18,0.708-1.776c0.52-1.207,1.067-2.479,1.632-3.797c0.61-1.297,1.285-2.618,1.933-3.976l0.496-1.02
			l0.554-0.997c0.366-0.667,0.737-1.338,1.106-2.008c2.993-5.34,6.464-10.402,9.302-14.012c1.421-1.803,2.684-3.242,3.522-4.287
			c0.426-0.517,0.804-0.885,1.041-1.154c0.242-0.264,0.372-0.405,0.372-0.405s0.517-0.564,1.42-1.552
			c0.867-1.025,2.276-2.319,3.889-3.952c3.314-3.167,7.934-7.194,12.933-10.71c5.003-3.513,10.344-6.489,14.433-8.537
			c1.037-0.487,1.985-0.933,2.826-1.329c0.421-0.2,0.813-0.387,1.175-0.56c0.365-0.167,0.714-0.294,1.021-0.423
			c1.235-0.507,1.942-0.795,1.942-0.795s0.705-0.292,1.938-0.804c1.258-0.449,3.057-1.09,5.213-1.858
			c4.373-1.374,10.287-2.977,16.351-3.999c6.073-0.98,12.187-1.358,16.769-1.461c2.291,0.036,4.199,0.065,5.535,0.086
			c1.333,0.09,2.093,0.141,2.093,0.141s0.761,0.048,2.094,0.129c0.333,0.024,0.703,0.033,1.104,0.074
			c0.4,0.047,0.832,0.098,1.293,0.153c0.923,0.104,1.965,0.222,3.103,0.35c4.531,0.626,10.543,1.731,16.41,3.452
			c5.863,1.725,11.531,4.056,15.688,5.993c2.052,1.028,3.801,1.802,4.951,2.494c1.173,0.646,1.842,1.014,1.842,1.014
			s0.168,0.092,0.483,0.263c0.31,0.181,0.785,0.406,1.355,0.76c1.13,0.72,2.787,1.678,4.712,2.929
			c3.847,2.508,8.76,6.189,13.309,10.285c0.564,0.516,1.13,1.033,1.692,1.547l0.846,0.767l0.796,0.806
			c1.051,1.077,2.113,2.111,3.106,3.145c0.959,1.066,1.887,2.095,2.766,3.072c0.453,0.477,0.857,0.971,1.241,1.456
			c0.39,0.479,0.768,0.94,1.129,1.385c1.492,1.743,2.587,3.309,3.385,4.381c0.799,1.071,1.255,1.684,1.255,1.684
			s0.422,0.636,1.159,1.749c0.731,1.118,1.846,2.67,2.975,4.663c0.571,0.992,1.261,2.025,1.872,3.185
			c0.616,1.157,1.267,2.378,1.94,3.639c1.24,2.577,2.597,5.313,3.696,8.162c0.293,0.705,0.586,1.409,0.878,2.111
			c0.25,0.717,0.503,1.433,0.751,2.142c0.252,0.708,0.502,1.411,0.749,2.104c0.12,0.349,0.255,0.69,0.366,1.037
			c0.102,0.348,0.203,0.696,0.305,1.039c0.41,1.373,0.808,2.7,1.186,3.96c0.311,1.278,0.606,2.486,0.881,3.602
			c0.603,2.216,0.864,4.125,1.143,5.437c0.258,1.318,0.404,2.072,0.404,2.072s0.102,0.761,0.282,2.092
			c0.158,1.331,0.523,3.224,0.662,5.516c0.1,1.145,0.209,2.384,0.323,3.695c0.046,1.312,0.095,2.697,0.147,4.129
			c0.016,0.358,0.03,0.719,0.045,1.083c0.006,0.364-0.01,0.729-0.014,1.098c-0.011,0.736-0.021,1.484-0.032,2.233
			c-0.009,0.753-0.018,1.51-0.026,2.271c-0.05,0.759-0.101,1.519-0.153,2.281c-0.126,3.051-0.532,6.078-0.882,8.915
			c-0.232,1.412-0.456,2.776-0.669,4.069c-0.205,1.295-0.528,2.495-0.75,3.617c-0.429,2.25-0.985,4.079-1.318,5.372
			c-0.344,1.291-0.537,2.029-0.537,2.029S273.527,199.173,273.115,200.443z"/>
	</g>
</g>
<g id="Layer_1">
	<path fill="#DC8744" d="M222.955,98.233H114.854c-2.851,0-5.162,2.311-5.162,5.162v133.413c0,2.851,2.312,5.162,5.162,5.162
		h108.104c2.852,0,5.162-2.312,5.162-5.162V103.395C228.12,100.544,225.808,98.233,222.955,98.233z"/>
	<path fill="#F6C358" d="M222.955,95.2H114.854c-2.851,0-5.162,2.313-5.162,5.164v133.411c0,2.854,2.312,5.165,5.162,5.165h108.104
		c2.852,0,5.162-2.312,5.162-5.165V100.363C228.12,97.512,225.808,95.2,222.955,95.2z"/>
	<rect x="119.31" y="104.374" fill="#EBF0F3" width="99.193" height="125.962"/>
	<rect x="119.31" y="101.388" fill="#FFFFFF" width="99.193" height="125.963"/>
	<path fill="#DC8744" d="M201.515,91.558c-0.565-2.449-2.748-4.186-5.263-4.186H178.54c0-5.32-4.313-9.635-9.636-9.635
		c-5.32,0-9.634,4.315-9.634,9.635h-17.711c-2.514,0-4.696,1.737-5.263,4.186l-3.632,15.708h72.484L201.515,91.558z M168.904,92.004
		c-2.558,0-4.63-2.072-4.63-4.632c0-2.557,2.073-4.631,4.63-4.631c2.56,0,4.632,2.075,4.632,4.631
		C173.536,89.932,171.464,92.004,168.904,92.004z"/>
	<path fill="#64798A" d="M151.321,140.896h-24.494v-24.494h24.494V140.896z M131.306,136.419h15.539v-15.538h-15.539V136.419
		L131.306,136.419z"/>
	<g>
		<rect x="157.152" y="119.001" fill="#E1E6E9" width="27.256" height="4.266"/>
		<rect x="157.152" y="134.034" fill="#E1E6E9" width="54.511" height="4.267"/>
	</g>
	<path fill="#64798A" d="M151.321,176.616h-24.494v-24.497h24.494V176.616z M131.306,172.137h15.539v-15.539h-15.539V172.137
		L131.306,172.137z"/>
	<g>
		<rect x="157.152" y="154.716" fill="#E1E6E9" width="27.256" height="4.268"/>
		<rect x="157.152" y="169.752" fill="#E1E6E9" width="54.511" height="4.267"/>
	</g>
	<path fill="#64798A" d="M151.321,212.332h-24.494v-24.496h24.494V212.332z M131.306,207.854h15.539v-15.538h-15.539V207.854
		L131.306,207.854z"/>
	<g>
		<rect x="157.152" y="190.436" fill="#E1E6E9" width="27.256" height="4.266"/>
		<rect x="157.152" y="205.463" fill="#E1E6E9" width="54.511" height="4.267"/>
	</g>
	<g>
		<polygon fill="#E56353" points="137.619,135.083 131.527,127.911 133.802,125.979 138.069,131.002 152.713,119.942 
			154.515,122.321 		"/>
		<polygon fill="#E56353" points="137.619,169.394 131.527,162.225 133.802,160.292 138.069,165.311 152.713,154.253 
			154.515,156.636 		"/>
	</g>
</g>
</svg>
