<?xml version="1.0" encoding="utf-8"?>
<!-- Generator: Adobe Illustrator 16.0.3, SVG Export Plug-In . SVG Version: 6.00 Build 0)  -->
<!DOCTYPE svg PUBLIC "-//W3C//DTD SVG 1.1//EN" "http://www.w3.org/Graphics/SVG/1.1/DTD/svg11.dtd">
<svg version="1.1" id="Capa_1" xmlns="http://www.w3.org/2000/svg" xmlns:xlink="http://www.w3.org/1999/xlink" x="0px" y="0px"
	 width="337.054px" height="336.973px" viewBox="0 0 337.054 336.973" enable-background="new 0 0 337.054 336.973"
	 xml:space="preserve">

	 	<style>
			@keyframes spin { 
				0% { transform: rotate(0deg);}
				100% { transform: rotate(360deg);}
			}

			.gear {
				animation: spin 20s infinite linear;
				display: block;
				transform-origin: 50% 50%;
			}
		</style>
<g>
	
		<linearGradient id="SVGID_1_" gradientUnits="userSpaceOnUse" x1="150.9097" y1="-99.5283" x2="381.3912" y2="130.9533" gradientTransform="matrix(1 0 0 -1 -97.6602 181.04)">
		<stop  offset="0" style="stop-color:#03A9F4"/>
		<stop  offset="1" style="stop-color:#039BE5"/>
	</linearGradient>
	<path class="gear" fill="url(#SVGID_1_)" d="M258.172,273.684c0,0,0.296-0.246,0.808-0.678c0.501-0.442,1.266-1.017,2.095-1.809
		c0.84-0.779,1.818-1.689,2.869-2.667c1.063-0.961,2.17-2.016,3.216-3.131c1.064-1.096,2.13-2.191,3.129-3.219
		c0.985-1.038,1.839-2.068,2.604-2.922c1.516-1.723,2.521-2.871,2.521-2.871s0.949-1.197,2.373-2.995
		c0.702-0.906,1.565-1.93,2.411-3.084c0.832-1.167,1.721-2.412,2.607-3.655c0.913-1.228,1.748-2.506,2.509-3.723
		c0.772-1.206,1.492-2.332,2.108-3.298c0.633-0.96,1.06-1.815,1.408-2.388c0.331-0.581,0.521-0.913,0.521-0.913
		s6.299,1.343,12.774,2.335c6.379,0.983,12.929,1.617,12.929,1.617s0.497-0.983,1.241-2.46c0.726-1.483,1.592-3.508,2.494-5.517
		c0.926-1.997,1.722-4.053,2.31-5.597c0.596-1.54,0.994-2.568,0.994-2.568s-4.882-4.342-10.043-8.373
		c-5.116-4.056-10.354-7.735-10.354-7.735s0.133-0.358,0.304-1.005c0.181-0.644,0.436-1.567,0.742-2.668
		c0.299-1.107,0.686-2.388,1.026-3.78c0.315-1.396,0.652-2.888,0.99-4.378c0.702-2.978,1.104-6.012,1.538-8.262
		c0.294-2.274,0.487-3.79,0.487-3.79s0.048-0.379,0.131-1.043c0.066-0.665,0.238-1.607,0.311-2.751
		c0.138-2.286,0.515-5.327,0.536-8.386c0.042-1.527,0.083-3.055,0.123-4.486c-0.026-1.431-0.051-2.77-0.071-3.917
		c-0.025-1.146-0.047-2.101-0.061-2.768c-0.043-0.669-0.071-1.052-0.071-1.052s5.995-2.282,11.962-4.952
		c2.996-1.324,5.948-2.723,8.125-3.803c2.188-1.101,3.65-1.834,3.65-1.834s-0.124-1.092-0.314-2.729
		c-0.153-1.641-0.504-3.812-0.865-5.98c-0.353-2.17-0.692-4.341-1.067-5.947c-0.341-1.614-0.567-2.69-0.567-2.69
		s-1.618-0.234-4.046-0.585c-2.411-0.334-5.64-0.733-8.906-1.04c-6.506-0.646-12.919-0.916-12.919-0.916s-0.364-1.485-1.083-3.664
		c-0.346-1.094-0.745-2.369-1.177-3.735c-0.458-1.357-1.013-2.781-1.534-4.218c-0.993-2.893-2.301-5.663-3.168-7.784
		c-0.43-1.063-0.876-1.909-1.161-2.514c-0.29-0.602-0.458-0.946-0.458-0.946s-0.665-1.376-1.661-3.439
		c-1.109-2.006-2.502-4.732-4.079-7.348c-1.592-2.61-3.169-5.23-4.511-7.091c-1.291-1.894-2.152-3.156-2.152-3.156
		s3.791-5.154,7.346-10.619c1.785-2.722,3.521-5.506,4.797-7.621c1.245-2.111,2.074-3.521,2.074-3.521s-0.705-0.845-1.766-2.11
		c-1.083-1.243-2.427-2.993-3.955-4.577c-1.497-1.61-2.995-3.221-4.122-4.428c-1.14-1.191-1.941-1.941-1.941-1.941
		s-6.023,2.694-11.77,5.66c-2.868,1.461-5.726,3.024-7.853,4.228c-2.104,1.208-3.507,2.015-3.507,2.015s-1.151-1.009-2.873-2.522
		c-1.759-1.465-4.161-3.356-6.583-5.226c-4.907-3.65-10.11-6.865-10.11-6.865s-1.273-0.845-3.283-1.954
		c-0.996-0.569-2.156-1.231-3.399-1.943c-1.248-0.704-2.635-1.352-3.992-2.056c-2.699-1.441-5.523-2.614-7.611-3.559
		c-1.041-0.479-1.923-0.846-2.554-1.074c-0.624-0.24-0.979-0.379-0.979-0.379s0.419-6.412,0.473-12.962
		c0.076-6.504-0.25-13.039-0.25-13.039s-4.163-1.444-8.43-2.549c-1.059-0.292-2.121-0.586-3.115-0.86
		c-1.008-0.231-1.945-0.444-2.751-0.628c-1.609-0.364-2.682-0.607-2.682-0.607s-3.595,5.434-6.846,11.128
		c-3.282,5.648-6.177,11.364-6.177,11.364s-0.376-0.062-1.036-0.172c-0.663-0.083-1.61-0.203-2.748-0.347
		c-1.136-0.141-2.464-0.305-3.887-0.481c-1.427-0.111-2.952-0.229-4.474-0.348c-3.046-0.291-6.109-0.236-8.397-0.349
		c-2.293,0.032-3.82,0.052-3.82,0.052s-1.528,0.002-3.82,0.097c-1.143,0.076-2.478,0.165-3.908,0.259
		c-1.431,0.071-2.954,0.206-4.471,0.403c-1.518,0.174-3.038,0.349-4.46,0.511c-1.414,0.229-2.735,0.446-3.867,0.629
		c-1.129,0.184-2.072,0.338-2.733,0.445c-0.654,0.139-1.028,0.217-1.028,0.217s-3.109-5.609-6.595-11.133
		c-1.734-2.771-3.54-5.514-4.917-7.513c-1.399-2.01-2.332-3.35-2.332-3.35s-1.062,0.278-2.657,0.699
		c-1.603,0.39-3.708,1.027-5.802,1.705c-4.219,1.247-8.321,2.848-8.321,2.848s-0.003,1.635-0.006,4.089
		c0.015,2.446,0.072,5.676,0.234,8.958c0.287,6.536,0.934,12.924,0.934,12.924s-1.424,0.559-3.473,1.588
		c-2.071,0.986-4.827,2.307-7.483,3.824c-2.717,1.409-5.284,3.07-7.248,4.253c-0.988,0.586-1.784,1.108-2.33,1.496
		c-0.553,0.377-0.868,0.593-0.868,0.593s-1.262,0.861-3.158,2.152c-1.862,1.332-4.294,3.188-6.7,5.07
		c-2.321,1.989-4.733,3.873-6.37,5.483c-1.678,1.562-2.797,2.602-2.797,2.602s-1.435-0.754-3.591-1.886
		c-2.143-1.094-5.035-2.517-7.979-3.888c-5.874-2.757-12.01-5.23-12.01-5.23s-0.74,0.812-1.827,2.046
		c-1.085,1.239-2.53,2.889-3.978,4.538c-1.364,1.717-2.73,3.437-3.754,4.725c-1.02,1.292-1.687,2.163-1.687,2.163
		s3.53,5.597,7.293,10.883c1.875,2.652,3.793,5.242,5.251,7.156c1.5,1.915,2.497,3.196,2.497,3.196s-0.824,1.287-2.06,3.218
		c-1.293,1.896-2.715,4.607-4.257,7.247c-1.422,2.702-2.813,5.427-3.789,7.5c-0.933,2.094-1.556,3.492-1.556,3.492
		s-0.155,0.349-0.426,0.959c-0.286,0.606-0.659,1.486-1.056,2.562c-0.815,2.142-1.99,4.966-2.89,7.89
		c-1.015,2.885-1.824,5.834-2.422,8.045c-0.647,2.201-0.943,3.703-0.943,3.703s-6.401,0.505-12.885,1.391
		c-3.257,0.428-6.444,0.947-8.856,1.371c-2.413,0.442-4.02,0.737-4.02,0.737s-0.844,4.321-1.317,8.698
		c-0.291,2.18-0.542,4.364-0.638,6.011c-0.129,1.645-0.213,2.742-0.213,2.742s1.485,0.677,3.714,1.695
		c2.213,0.998,5.233,2.284,8.27,3.495c6.061,2.442,12.133,4.5,12.133,4.5s-0.01,0.382-0.028,1.051
		c0.011,0.669,0.026,1.623,0.049,2.769c0.02,1.146,0.045,2.483,0.07,3.917c0.095,1.429,0.195,2.954,0.296,4.479
		c0.076,1.527,0.216,3.05,0.402,4.472c0.164,1.422,0.314,2.75,0.445,3.89c0.315,2.27,0.587,3.776,0.587,3.776
		s0.254,1.506,0.634,3.768c0.518,2.231,1.013,5.254,1.842,8.199c0.387,1.478,0.776,2.955,1.142,4.342
		c0.428,1.367,0.828,2.644,1.168,3.737c0.346,1.093,0.633,2.005,0.833,2.643c0.225,0.63,0.353,0.988,0.353,0.988
		s-5.106,3.873-10.076,8.109c-5.023,4.215-9.725,8.723-9.725,8.723s0.431,1.015,1.075,2.533c0.325,0.759,0.704,1.644,1.11,2.594
		c0.449,0.929,0.926,1.921,1.402,2.913c1.851,3.998,4.016,7.835,4.016,7.835s6.487-0.845,12.874-2.084
		c6.434-1.223,12.669-2.783,12.669-2.783s0.199,0.326,0.547,0.898c0.338,0.578,0.856,1.381,1.514,2.318
		c1.302,1.888,2.963,4.458,4.86,6.854c0.934,1.21,1.821,2.457,2.739,3.56c0.92,1.096,1.779,2.121,2.516,2.999
		c1.451,1.775,2.512,2.878,2.512,2.878s4.091,4.546,8.562,8.722c2.269,2.046,4.56,4.072,6.317,5.545
		c1.796,1.421,2.992,2.369,2.992,2.369s-0.54,1.527-1.354,3.815c-0.808,2.306-1.834,5.397-2.757,8.479
		c-1.894,6.185-3.465,12.59-3.465,12.59s0.881,0.658,2.255,1.569c1.39,0.889,3.241,2.074,5.094,3.263
		c1.831,1.219,3.793,2.229,5.212,3.073c1.432,0.816,2.391,1.36,2.391,1.36s1.236-1.067,3.091-2.669
		c1.853-1.635,4.282-3.84,6.64-6.082c4.743-4.475,9.136-9.126,9.136-9.126s1.395,0.622,3.491,1.556
		c2.071,0.985,4.929,2.07,7.783,3.168c2.854,1.087,5.787,1.967,7.957,2.699c2.208,0.614,3.682,1.023,3.682,1.023
		s0.368,0.102,1.012,0.279c0.645,0.172,1.558,0.462,2.681,0.693c2.242,0.476,5.201,1.265,8.226,1.728
		c1.506,0.253,3.006,0.545,4.424,0.754c1.421,0.179,2.747,0.346,3.885,0.491c2.271,0.316,3.799,0.411,3.799,0.411
		s1.41,6.26,3.209,12.546c0.885,3.159,1.854,6.267,2.614,8.579c0.779,2.323,1.298,3.874,1.298,3.874s1.101,0.031,2.747,0.077
		c1.648,0.081,3.846,0.028,6.044-0.013c2.197-0.033,4.394-0.077,6.037-0.216c1.645-0.11,2.743-0.181,2.743-0.181
		s0.46-1.568,1.15-3.919c0.675-2.334,1.522-5.489,2.289-8.675c1.561-6.348,2.736-12.651,2.736-12.651s0.379-0.044,1.045-0.121
		c0.658-0.106,1.604-0.256,2.736-0.436c1.131-0.186,2.45-0.401,3.865-0.632c1.403-0.295,2.899-0.609,4.393-0.922
		c3.007-0.567,5.929-1.485,8.155-2.024c1.113-0.277,2.011-0.614,2.652-0.799c0.636-0.202,1.001-0.316,1.001-0.316
		s1.458-0.462,3.643-1.155c2.136-0.829,5.049-1.77,7.854-2.992c1.405-0.597,2.813-1.195,4.131-1.756
		c1.307-0.583,2.497-1.195,3.533-1.684c1.033-0.499,1.894-0.915,2.495-1.208c0.605-0.281,0.936-0.479,0.936-0.479
		s4.557,4.497,9.462,8.806c4.888,4.358,10.033,8.381,10.033,8.381s0.939-0.574,2.347-1.435c1.414-0.856,3.293-2.002,5.094-3.271
		c1.815-1.248,3.654-2.463,4.985-3.441c1.317-0.995,2.195-1.657,2.195-1.657s-1.795-6.334-3.9-12.434
		C260.62,279.642,258.172,273.684,258.172,273.684z M199.927,277.6c-0.87,0.227-1.93,0.502-3.142,0.821
		c-0.606,0.162-1.252,0.334-1.933,0.515c-0.688,0.146-1.413,0.297-2.168,0.455c-6.024,1.349-14.222,2.5-22.464,2.625
		c-8.241,0.185-16.469-0.66-22.533-1.782c-3.056-0.455-5.527-1.182-7.295-1.522c-1.745-0.431-2.728-0.734-2.728-0.734
		s-0.989-0.275-2.723-0.753c-0.869-0.233-1.892-0.62-3.084-1.003c-1.182-0.409-2.547-0.786-3.967-1.385
		c-5.791-2.101-13.284-5.553-20.265-9.918c-7.01-4.311-13.473-9.519-18.02-13.717c-2.188-2.183-4.109-3.907-5.283-5.273
		c-1.228-1.32-1.929-2.073-1.929-2.073s-0.729-0.726-1.861-2.127c-1.155-1.38-2.846-3.313-4.658-5.812
		c-3.72-4.908-8.169-11.853-11.698-19.284c-3.58-7.403-6.216-15.241-7.702-21.231c-0.426-1.486-0.715-2.872-0.963-4.103
		c-0.263-1.228-0.493-2.297-0.681-3.177c-0.286-1.779-0.447-2.796-0.447-2.796s-0.166-1.017-0.457-2.794
		c-0.1-0.896-0.222-1.983-0.363-3.231c-0.162-1.246-0.309-2.652-0.38-4.198c-0.483-6.159-0.463-14.434,0.583-22.603
		c0.986-8.177,2.995-16.186,4.965-22.02c1.935-5.854,3.666-9.59,3.666-9.59s0.415-0.939,1.145-2.581
		c0.338-0.834,0.86-1.793,1.424-2.912c0.585-1.106,1.162-2.398,1.93-3.735c2.898-5.441,7.428-12.357,12.727-18.706
		c5.299-6.35,11.292-12.04,16.127-15.865c1.178-0.995,2.346-1.794,3.331-2.566c1-0.754,1.85-1.439,2.612-1.92
		c1.484-1.011,2.332-1.588,2.332-1.588s3.366-2.371,8.779-5.321c5.39-2.98,12.91-6.391,20.779-8.822
		c7.849-2.487,15.99-3.987,22.135-4.613c1.532-0.207,2.942-0.311,4.199-0.374c1.252-0.085,2.343-0.161,3.243-0.221
		c1.803-0.032,2.833-0.051,2.833-0.051s1.03-0.022,2.832-0.059c0.9,0.029,1.994,0.062,3.249,0.103
		c1.254,0.024,2.67,0.063,4.208,0.215c6.16,0.39,14.34,1.583,22.267,3.78c7.941,2.141,15.569,5.282,21.065,8.062
		c2.778,1.337,4.987,2.655,6.548,3.544c1.581,0.863,2.427,1.451,2.427,1.451s0.865,0.553,2.381,1.525
		c1.558,0.912,3.596,2.492,6.134,4.256c4.945,3.724,11.219,9.152,16.715,15.278c5.545,6.088,10.282,12.845,13.386,18.166
		c0.842,1.292,1.454,2.57,2.069,3.659c0.587,1.104,1.151,2.043,1.537,2.854c0.778,1.62,1.228,2.545,1.228,2.545
		s0.475,0.912,1.209,2.553c0.652,1.676,1.809,3.98,2.806,6.905c2.186,5.766,4.485,13.708,5.779,21.851
		c1.348,8.133,1.679,16.405,1.433,22.572c-0.024,0.773-0.044,1.512-0.062,2.214c-0.058,0.702-0.11,1.367-0.161,1.993
		c-0.097,1.25-0.18,2.342-0.247,3.24c-0.22,1.787-0.346,2.809-0.346,2.809s-0.125,1.02-0.351,2.806
		c-0.153,0.887-0.341,1.963-0.558,3.199c-0.215,1.234-0.428,2.633-0.807,4.127c-1.257,6.037-3.604,13.953-6.918,21.476
		c-3.256,7.547-7.469,14.646-11,19.714c-0.896,1.259-1.718,2.413-2.446,3.437c-0.782,0.983-1.461,1.846-2.023,2.553
		c-1.12,1.421-1.759,2.23-1.759,2.23s-0.681,0.772-1.879,2.126c-0.594,0.68-1.32,1.502-2.149,2.448
		c-0.875,0.898-1.865,1.912-2.945,3.021c-4.353,4.381-10.585,9.793-17.43,14.346c-6.806,4.606-14.177,8.327-19.89,10.643
		c-1.404,0.64-2.743,1.102-3.92,1.533c-1.176,0.434-2.201,0.81-3.045,1.122c-1.72,0.537-2.701,0.843-2.701,0.843
		S201.646,277.063,199.927,277.6z"/>
</g>
<g id="Capa_6">
	<g>
		<path fill="#E0E0E0" d="M112.983,219.587c-6.031-6.032-10.785-12.412-13.966-18.32l-6.79,6.788
			c-2.546,2.549,2.616,11.84,11.531,20.757c8.915,8.916,18.209,14.077,20.758,11.529l6.787-6.787
			C125.392,230.372,119.016,225.62,112.983,219.587L112.983,219.587z"/>
		<path fill="#1976D2" d="M209.923,251.443c-11.235,0-20.379-9.14-20.379-20.379c0-4.816-3.919-8.731-8.734-8.731
			c-6.422,0-11.645-5.225-11.645-11.647c0-1.608,1.302-2.911,2.91-2.911c1.611,0,2.911,1.304,2.911,2.911
			c0,3.213,2.613,5.823,5.824,5.823c8.025,0,14.556,6.531,14.556,14.556c0,8.027,6.529,14.558,14.557,14.558
			c8.026,0,14.558-6.53,14.558-14.558c0-8.024-6.531-14.556-14.558-14.556c-1.61,0-2.912-1.305-2.912-2.91
			c0-1.608,1.302-2.913,2.912-2.913c11.236,0,20.378,9.143,20.378,20.379C230.3,242.304,221.157,251.443,209.923,251.443"/>
		<path fill="#42A5F5" d="M152.187,235.731l83.022-83.022c-6.366,6.365-23.92-0.859-39.204-16.145
			c-15.286-15.284-22.513-32.835-16.143-39.207l-83.023,83.026c-6.37,6.365,0.86,23.918,16.144,39.203
			C128.265,234.871,145.819,242.097,152.187,235.731"/>
		<path fill="#BDBDBD" d="M239.82,125.034c-3.816,3.818-14.144-0.309-23.06-9.226c-8.917-8.916-13.045-19.242-9.224-23.062
			c3.82-3.821,14.146,0.308,23.061,9.225C239.513,110.886,243.642,121.214,239.82,125.034"/>
		<path fill="#E0E0E0" d="M216.759,115.808c-8.914-8.913-13.045-19.24-9.223-23.061L193.7,106.583
			c-2.547,2.547,2.613,11.839,11.527,20.756c8.919,8.916,18.212,14.077,20.76,11.528l13.832-13.832
			C236.003,128.853,225.675,124.724,216.759,115.808"/>
		<g>
			<path fill="#1976D2" d="M233.032,131.824l-7.045,7.046c-2.549,2.548-11.842-2.614-20.761-11.529
				c-8.914-8.917-14.075-18.208-11.527-20.756l7.046-7.047c-9.07-4.876-17.029-6.031-20.884-2.179
				c-6.37,6.371,0.858,23.921,16.143,39.206c15.284,15.284,32.836,22.514,39.204,16.141
				C239.065,148.854,237.91,140.892,233.032,131.824"/>
			<path fill="#1E88E5" d="M144.482,132.74l-4.278,4.276l39.426,70.159l2.539-1.427l2.136-2.136L144.482,132.74z"/>
			<path fill="#1E88E5" d="M229.706,158.21l-83.765-19.867l-1.341,5.665l80.269,19.04L229.706,158.21z"/>
			<path fill="#1E88E5" d="M202.769,142.674c-2.273-1.863-4.545-3.89-6.763-6.111c-0.793-0.792-1.549-1.592-2.298-2.396
				l-39.8-10.852l-4.742,4.738L202.769,142.674z"/>
			<path fill="#1E88E5" d="M157.55,159.121l-1.504,5.627l52.97,14.151l4.757-4.756L157.55,159.121z"/>
			<path fill="#1E88E5" d="M169.003,179.855l-1.343,5.665l28.092,6.645l4.838-4.838L169.003,179.855z"/>
			<path fill="#1E88E5" d="M152.481,199.584l5.178-2.661l-26.248-51.115l-4.326,4.326L152.481,199.584z"/>
			<path fill="#1E88E5" d="M127.53,192.65l5.222-2.583l-15.088-30.512l-4.348,4.349L127.53,192.65z"/>
			<path fill="#1E88E5" d="M179.648,208.269l4.697-4.696l-85.634-25.06l-1.873,1.868c-0.847,0.847-1.438,1.905-1.815,3.118
				L179.648,208.269z"/>
			<path fill="#1E88E5" d="M163.703,224.214l4.708-4.71l-70.376-20.107c1.15,2.35,2.594,4.793,4.252,7.27L163.703,224.214z"/>
		</g>
	</g>
</g>
</svg>
