<?xml version="1.0" encoding="utf-8"?>
<!-- Generator: Adobe Illustrator 16.0.3, SVG Export Plug-In . SVG Version: 6.00 Build 0)  -->
<!DOCTYPE svg PUBLIC "-//W3C//DTD SVG 1.1//EN" "http://www.w3.org/Graphics/SVG/1.1/DTD/svg11.dtd">
<svg version="1.1" id="Capa_1" xmlns="http://www.w3.org/2000/svg" xmlns:xlink="http://www.w3.org/1999/xlink" x="0px" y="0px"
	 width="337.054px" height="336.973px" viewBox="0 0 337.054 336.973" enable-background="new 0 0 337.054 336.973"
	 xml:space="preserve">

	 <style>
			@keyframes spin { 
				0% { transform: rotate(0deg);}
				100% { transform: rotate(360deg);}
			}

			.gear {
				animation: spin 20s infinite linear;
				display: block;
				transform-origin: 50% 50%;
			}
		</style>
<g>
	<g>
		
			<linearGradient id="SVGID_1_" gradientUnits="userSpaceOnUse" x1="148.2563" y1="-96.2808" x2="373.3234" y2="128.7865" gradientTransform="matrix(1 0 0 -1 -97.6602 181.04)">
			<stop  offset="1.100000e-007" style="stop-color:#8BC34A"/>
			<stop  offset="1" style="stop-color:#7CB342"/>
		</linearGradient>
		<path class="gear" fill="url(#SVGID_1_)" d="M324.865,160.623c-0.058-1.608-0.095-2.678-0.095-2.678s-1.515-0.5-3.788-1.244
			c-2.264-0.729-5.302-1.655-8.39-2.5c-6.145-1.719-12.263-3.059-12.263-3.059s-0.1-1.49-0.425-3.703
			c-0.146-1.111-0.317-2.403-0.501-3.79c-0.213-1.381-0.506-2.845-0.766-4.316c-0.468-2.948-1.259-5.829-1.734-8.015
			c-0.23-1.096-0.521-1.983-0.691-2.614c-0.179-0.626-0.279-0.984-0.279-0.984s-0.408-1.436-1.021-3.588
			c-0.728-2.114-1.606-4.971-2.684-7.751c-1.087-2.778-2.164-5.56-3.14-7.578c-0.922-2.04-1.538-3.397-1.538-3.397
			s4.514-4.314,8.852-8.97c2.173-2.316,4.31-4.699,5.896-6.517c1.554-1.82,2.587-3.034,2.587-3.034s-0.536-0.931-1.341-2.327
			c-0.833-1.376-1.831-3.286-3.032-5.067c-1.169-1.8-2.338-3.601-3.213-4.951c-0.897-1.337-1.546-2.194-1.546-2.194
			s-6.238,1.576-12.266,3.458c-3.005,0.921-6.016,1.943-8.261,2.741c-2.229,0.808-3.713,1.348-3.713,1.348s-0.935-1.165-2.336-2.909
			c-1.445-1.707-3.436-3.932-5.446-6.134c-4.102-4.338-8.565-8.304-8.565-8.304s-1.081-1.027-2.823-2.432
			c-0.861-0.713-1.865-1.547-2.943-2.44c-1.079-0.888-2.302-1.744-3.488-2.65c-2.351-1.839-4.871-3.443-6.72-4.706
			c-0.919-0.637-1.705-1.137-2.271-1.461c-0.561-0.336-0.877-0.53-0.877-0.53s1.482-6.095,2.638-12.38
			c1.171-6.238,1.957-12.577,1.957-12.577s-3.76-2.09-7.672-3.871c-0.973-0.461-1.942-0.92-2.852-1.35
			c-0.928-0.391-1.795-0.757-2.535-1.069c-1.488-0.622-2.478-1.037-2.478-1.037s-4.372,4.616-8.458,9.544
			c-4.104,4.876-7.853,9.883-7.853,9.883s-0.351-0.122-0.967-0.34c-0.624-0.192-1.517-0.467-2.584-0.795
			c-1.069-0.328-2.319-0.709-3.655-1.119c-1.354-0.347-2.8-0.717-4.245-1.088c-2.879-0.789-5.831-1.256-8.015-1.747
			c-2.206-0.358-3.68-0.595-3.68-0.595s-1.471-0.255-3.688-0.552c-1.111-0.12-2.408-0.26-3.8-0.41
			c-1.388-0.173-2.875-0.3-4.364-0.366c-1.491-0.088-2.979-0.176-4.375-0.259c-1.4-0.018-2.704-0.034-3.82-0.046
			c-1.12-0.014-2.053-0.026-2.704-0.033c-0.653,0.022-1.025,0.036-1.025,0.036s-2.044-5.916-4.463-11.814
			c-1.201-2.957-2.473-5.896-3.461-8.05c-1.007-2.17-1.678-3.615-1.678-3.615s-1.069,0.09-2.673,0.224
			c-1.605,0.107-3.738,0.364-5.865,0.662c-4.269,0.487-8.48,1.337-8.48,1.337s-0.278,1.572-0.695,3.927
			c-0.396,2.356-0.886,5.47-1.285,8.654c-0.825,6.333-1.279,12.582-1.279,12.582s-1.464,0.295-3.606,0.941
			c-2.156,0.6-5.03,1.404-7.838,2.416c-2.847,0.896-5.598,2.06-7.685,2.868c-1.047,0.396-1.904,0.763-2.493,1.045
			c-0.594,0.27-0.935,0.423-0.935,0.423s-1.359,0.615-3.397,1.537c-2.016,0.968-4.668,2.34-7.296,3.745
			c-2.565,1.521-5.205,2.924-7.045,4.199c-1.879,1.217-3.13,2.029-3.13,2.029s-1.253-0.969-3.134-2.418
			c-1.875-1.411-4.417-3.27-7.017-5.081c-5.181-3.64-10.663-7.05-10.663-7.05s-0.849,0.653-2.102,1.658
			c-1.253,1.007-2.921,2.349-4.59,3.692c-1.601,1.422-3.205,2.843-4.405,3.911c-1.199,1.069-1.985,1.796-1.985,1.796
			s2.449,5.973,5.175,11.691c1.354,2.865,2.761,5.679,3.84,7.764c1.119,2.095,1.862,3.494,1.862,3.494s-1.009,1.098-2.521,2.746
			c-1.562,1.604-3.387,3.972-5.315,6.249c-1.823,2.359-3.62,4.744-4.908,6.571c-1.25,1.857-2.083,3.093-2.083,3.093
			s-0.208,0.312-0.574,0.852c-0.376,0.536-0.882,1.315-1.447,2.283c-1.144,1.923-2.75,4.439-4.109,7.098
			c-1.462,2.601-2.736,5.301-3.686,7.326c-0.994,2.007-1.529,3.399-1.529,3.399s-6.238-0.593-12.62-0.834
			c-3.204-0.138-6.356-0.174-8.745-0.176c-2.394,0.019-3.99,0.03-3.99,0.03s-1.539,4.013-2.731,8.141
			c-0.647,2.047-1.257,4.104-1.628,5.671c-0.399,1.559-0.667,2.598-0.667,2.598s1.313,0.904,3.283,2.256
			c1.959,1.333,4.644,3.078,7.361,4.753c5.413,3.372,10.905,6.372,10.905,6.372s-0.074,0.364-0.206,1.005
			c-0.101,0.646-0.247,1.567-0.419,2.67c-0.173,1.106-0.375,2.396-0.591,3.777c-0.15,1.391-0.311,2.874-0.472,4.356
			c-0.185,1.481-0.305,2.968-0.366,4.367c-0.085,1.396-0.163,2.7-0.23,3.814c-0.078,2.236-0.07,3.727-0.07,3.727
			s-0.013,1.493-0.028,3.729c0.122,2.233,0.087,5.223,0.389,8.192c0.124,1.487,0.249,2.972,0.366,4.368
			c0.181,1.388,0.348,2.68,0.494,3.79c0.146,1.11,0.269,2.033,0.355,2.681c0.111,0.643,0.173,1.009,0.173,1.009
			s-5.561,2.864-11.054,6.097c-5.539,3.206-10.819,6.749-10.819,6.749s0.244,1.046,0.608,2.616c0.185,0.784,0.399,1.698,0.633,2.679
			c0.272,0.97,0.565,2.004,0.856,3.036c1.104,4.156,2.539,8.212,2.539,8.212s6.381,0.279,12.728,0.165
			c6.391-0.089,12.647-0.539,12.647-0.539s0.138,0.348,0.377,0.954c0.225,0.613,0.587,1.474,1.062,2.485
			c0.936,2.032,2.099,4.782,3.521,7.408c0.693,1.318,1.336,2.666,2.032,3.881c0.702,1.21,1.354,2.338,1.915,3.307
			c1.096,1.954,1.928,3.192,1.928,3.192s3.168,5.061,6.76,9.827c1.837,2.349,3.699,4.684,5.141,6.394
			c1.484,1.67,2.478,2.785,2.478,2.785s-0.779,1.374-1.947,3.438c-1.162,2.081-2.67,4.879-4.078,7.689
			c-2.861,5.627-5.453,11.517-5.453,11.517s0.735,0.779,1.904,1.888c1.184,1.089,2.764,2.542,4.347,3.995
			c1.555,1.481,3.272,2.783,4.491,3.834c1.242,1.025,2.071,1.709,2.071,1.709s1.368-0.818,3.421-2.045
			c2.056-1.261,4.761-2.97,7.408-4.726c5.313-3.503,10.319-7.234,10.319-7.234s1.238,0.832,3.093,2.081
			c1.827,1.299,4.389,2.824,6.949,4.357c2.562,1.528,5.232,2.87,7.195,3.937c2.019,0.961,3.367,1.605,3.367,1.605
			s0.336,0.159,0.928,0.438c0.592,0.273,1.418,0.709,2.459,1.118c2.076,0.832,4.785,2.092,7.617,3.048
			c1.405,0.5,2.798,1.032,4.125,1.473c1.336,0.413,2.584,0.796,3.652,1.125c2.128,0.688,3.583,1.036,3.583,1.036
			s0.302,6.256,0.971,12.601c0.319,3.185,0.726,6.334,1.068,8.688c0.357,2.365,0.595,3.943,0.595,3.943s1.051,0.216,2.628,0.54
			c1.572,0.355,3.692,0.675,5.811,1.007c2.121,0.339,4.241,0.666,5.843,0.81c1.599,0.174,2.665,0.289,2.665,0.289
			s0.707-1.428,1.768-3.573c1.042-2.13,2.387-5.021,3.664-7.954c2.569-5.838,4.762-11.702,4.762-11.702s0.371,0.023,1.024,0.063
			c0.652,0.011,1.583,0.024,2.702,0.039c1.12,0.014,2.424,0.032,3.822,0.046c1.398-0.046,2.886-0.097,4.378-0.146
			c2.984-0.037,5.951-0.428,8.182-0.573c1.115-0.077,2.034-0.25,2.684-0.32c0.648-0.086,1.017-0.135,1.017-0.135
			s1.478-0.199,3.694-0.496c2.194-0.44,5.155-0.851,8.054-1.552c1.452-0.339,2.908-0.675,4.269-0.992
			c1.354-0.342,2.604-0.729,3.682-1.023c1.076-0.309,1.974-0.562,2.602-0.74c0.631-0.171,0.979-0.304,0.979-0.304
			s3.625,5.092,7.61,10.06c3.964,5.013,8.232,9.749,8.232,9.749s1.002-0.394,2.5-0.983c1.503-0.586,3.503-1.37,5.45-2.287
			c1.953-0.896,3.927-1.753,5.368-2.468c1.436-0.735,2.392-1.223,2.392-1.223s-0.655-6.392-1.654-12.611
			c-1.009-6.313-2.356-12.455-2.356-12.455s0.324-0.188,0.889-0.513c0.556-0.341,1.391-0.764,2.321-1.388
			c0.938-0.609,2.032-1.317,3.205-2.08c1.184-0.747,2.425-1.572,3.619-2.47c1.208-0.873,2.417-1.747,3.551-2.566
			c1.123-0.834,2.116-1.681,2.997-2.372c1.744-1.399,2.906-2.334,2.906-2.334s1.115-0.992,2.786-2.479
			c0.828-0.752,1.83-1.589,2.837-2.559c0.999-0.98,2.06-2.025,3.124-3.073c1.083-1.027,2.104-2.117,3.038-3.157
			c0.944-1.031,1.828-1.992,2.584-2.815c0.768-0.814,1.325-1.565,1.752-2.058c0.417-0.503,0.654-0.789,0.654-0.789
			s5.83,2.351,11.889,4.396c5.966,2.021,12.157,3.733,12.157,3.733s0.641-0.859,1.605-2.151c0.946-1.306,2.122-3.107,3.33-4.885
			c1.228-1.767,2.334-3.606,3.162-4.994c0.83-1.38,1.387-2.302,1.387-2.302s-3.959-4.999-8.239-9.741
			c-4.234-4.759-8.651-9.182-8.651-9.182s0.19-0.323,0.462-0.916c0.282-0.589,0.682-1.43,1.162-2.44
			c0.471-1.016,1.063-2.18,1.625-3.46c0.538-1.29,1.112-2.667,1.688-4.043c1.176-2.742,2.075-5.594,2.875-7.685
			c0.662-2.136,1.104-3.56,1.104-3.56s0.111-0.355,0.302-0.979c0.181-0.628,0.503-1.506,0.764-2.594
			c0.515-2.176,1.394-5.035,1.929-7.972c0.297-1.461,0.595-2.923,0.875-4.293c0.216-1.381,0.418-2.67,0.59-3.777
			c0.173-1.104,0.313-2.027,0.41-2.671c0.071-0.648,0.109-1.021,0.109-1.021s6.148-1.185,12.334-2.747
			c3.104-0.767,6.18-1.612,8.453-2.286c2.291-0.688,3.817-1.147,3.817-1.147s0.063-1.073,0.16-2.678
			c0.126-1.604,0.156-3.75,0.175-5.894C324.914,164.375,324.953,162.231,324.865,160.623z M166.496,258.81
			c-52.08,0-94.451-42.372-94.451-94.453c0-52.083,42.371-94.454,94.451-94.454s94.453,42.371,94.453,94.454
			C260.947,216.437,218.576,258.81,166.496,258.81z"/>
	</g>
</g>
<g id="Capa_7">
	<rect x="105.284" y="106.798" fill="#33691E" width="118.548" height="118.548"/>
	<g>
		<polygon fill="#9CCC65" points="117.985,174.542 143.389,174.542 143.389,161.839 117.985,161.839 117.985,119.5 151.857,119.5 
			151.857,132.202 130.688,132.202 130.688,144.903 185.726,144.903 185.726,199.944 198.429,199.944 198.429,132.202 
			164.558,132.202 164.558,106.798 105.284,106.798 105.284,225.347 139.155,225.347 139.155,212.646 117.985,212.646 		"/>
		<polygon fill="#9CCC65" points="181.494,106.798 181.494,119.5 211.131,119.5 211.131,212.646 173.025,212.646 173.025,161.839 
			160.325,161.839 160.325,187.242 130.688,187.242 130.688,199.944 160.325,199.944 160.325,225.347 223.834,225.347 
			223.834,106.798 		"/>
	</g>
	<g>
		<polygon fill="#7CB342" points="185.726,144.903 185.726,199.944 198.429,199.944 198.429,132.202 164.558,132.202 
			164.558,144.903 		"/>
		<polygon fill="#7CB342" points="223.834,106.798 181.494,106.798 181.494,119.5 211.131,119.5 211.131,212.646 173.025,212.646 
			173.025,161.839 160.325,161.839 160.325,225.347 223.834,225.347 		"/>
	</g>
</g>
</svg>
