<?xml version="1.0" encoding="utf-8"?>
<!-- Generator: Adobe Illustrator 16.0.3, SVG Export Plug-In . SVG Version: 6.00 Build 0)  -->
<!DOCTYPE svg PUBLIC "-//W3C//DTD SVG 1.1//EN" "http://www.w3.org/Graphics/SVG/1.1/DTD/svg11.dtd">
<svg version="1.1" id="Capa_1" xmlns="http://www.w3.org/2000/svg" xmlns:xlink="http://www.w3.org/1999/xlink" x="0px" y="0px"
	 width="337.054px" height="336.973px" viewBox="0 0 337.054 336.973" enable-background="new 0 0 337.054 336.973"
	 xml:space="preserve">

	 <style>
			@keyframes spin { 
				0% { transform: rotate(0deg);}
				100% { transform: rotate(360deg);}
			}

			.gear {
				animation: spin 20s infinite linear;
				display: block;
				transform-origin: 50% 50%;
			}
		</style>
<g>
	<g>
		<g>
			
				<linearGradient id="SVGID_1_" gradientUnits="userSpaceOnUse" x1="104.2314" y1="13.2275" x2="423.4414" y2="13.2275" gradientTransform="matrix(1 0 0 -1 -97.6602 181.04)">
				<stop  offset="0" style="stop-color:#FFC107"/>
				<stop  offset="1" style="stop-color:#FFB300"/>
			</linearGradient>
			<path class="gear" fill="url(#SVGID_1_)" d="M319.374,189.79c-3.886-2.063-9.159-4.674-14.435-7.03c-2.262-1.013-4.509-1.977-6.679-2.87
				c0.122-1.571,0.2-3.061,0.292-4.434c0.233-2.783,0.169-5.112,0.211-6.74c0.022-1.627,0.036-2.558,0.036-2.558
				s-0.036-0.931-0.1-2.557c-0.087-1.625-0.076-3.956-0.379-6.732c-0.127-1.371-0.243-2.858-0.402-4.426
				c2.148-0.948,4.369-1.968,6.604-3.035c5.215-2.488,10.42-5.229,14.257-7.39c3.801-2.151,6.316-3.691,6.316-3.691
				s-0.205-1.057-0.511-2.644c-0.159-0.79-0.317-1.72-0.538-2.706c-0.237-0.981-0.489-2.027-0.744-3.075
				c-0.255-1.046-0.513-2.092-0.752-3.074c-0.124-0.49-0.241-0.964-0.354-1.412c-0.13-0.446-0.253-0.864-0.367-1.252
				c-0.457-1.55-0.766-2.583-0.766-2.583s-2.943-0.228-7.316-0.413c-1.09-0.038-2.271-0.08-3.521-0.123
				c-1.262-0.02-2.59-0.04-3.967-0.062c-2.746-0.021-5.661,0.004-8.557,0.083c-2.476,0.066-4.934,0.173-7.27,0.305
				c-0.525-1.484-1.143-2.844-1.646-4.125c-1.01-2.604-2.048-4.685-2.73-6.164c-0.691-1.474-1.083-2.316-1.083-2.316
				s-0.435-0.821-1.195-2.262c-0.763-1.437-1.809-3.517-3.271-5.893c-0.356-0.601-0.728-1.227-1.11-1.873
				c-0.367-0.634-0.757-1.283-1.194-1.927c1.521-1.787,3.086-3.679,4.631-5.617c3.623-4.518,7.134-9.269,9.598-12.851
				c2.496-3.6,4.094-6.084,4.094-6.084s-0.636-0.868-1.588-2.168c-0.957-1.299-2.341-2.949-3.681-4.629
				c-0.682-0.83-1.337-1.686-2.006-2.438c-0.668-0.755-1.292-1.459-1.824-2.064c-1.071-1.205-1.784-2.008-1.784-2.008
				s-0.683,0.273-1.871,0.752c-1.188,0.482-2.868,1.171-4.901,2.063c-4.054,1.764-9.357,4.229-14.486,6.873
				c-2.185,1.118-4.365,2.295-6.437,3.448c-1.133-1.094-2.227-2.108-3.252-3.026c-2.084-1.856-3.896-3.316-5.129-4.38
				c-0.618-0.525-1.146-0.891-1.487-1.164c-0.346-0.265-0.53-0.407-0.53-0.407s-0.737-0.565-2.028-1.555
				c-1.267-1.029-3.213-2.301-5.498-3.903c-1.146-0.764-2.396-1.573-3.735-2.405c0.604-2.274,1.203-4.671,1.768-7.097
				c0.668-2.849,1.263-5.68,1.774-8.347c0.518-2.675,0.955-5.193,1.309-7.365c0.702-4.343,1.075-7.289,1.075-7.289
				s-0.234-0.13-0.646-0.357c-0.423-0.211-1.023-0.515-1.744-0.877c-1.447-0.717-3.375-1.673-5.305-2.629
				c-1.973-0.865-3.946-1.731-5.424-2.381c-0.743-0.32-1.359-0.589-1.791-0.776c-0.438-0.17-0.693-0.268-0.693-0.268
				s-2.019,2.177-4.896,5.505c-1.442,1.664-3.095,3.618-4.811,5.731c-1.725,2.115-3.506,4.367-5.262,6.715
				c-1.496,1.991-2.948,3.991-4.306,5.916c-1.495-0.493-2.921-0.934-4.242-1.323c-1.346-0.364-2.58-0.698-3.673-0.995
				c-0.549-0.147-1.06-0.286-1.533-0.415c-0.473-0.121-0.918-0.205-1.314-0.295c-1.59-0.347-2.499-0.544-2.499-0.544
				s-0.909-0.198-2.499-0.546c-1.602-0.295-3.898-0.652-6.651-1.117c-1.364-0.18-2.844-0.356-4.411-0.517
				c-0.452-2.316-0.952-4.738-1.5-7.173c-1.28-5.636-2.812-11.24-4.071-15.47c-1.256-4.223-2.202-7.04-2.202-7.04
				s-0.269-0.023-0.736-0.025c-0.471-0.006-1.14-0.018-1.944-0.029c-1.611-0.019-3.757-0.044-5.902-0.068
				c-2.145,0.078-4.291,0.156-5.898,0.214c-0.805,0.034-1.478,0.06-1.944,0.078c-0.47,0.015-0.737,0.043-0.737,0.043
				s-0.873,2.84-2.026,7.093c-1.156,4.259-2.544,9.899-3.68,15.566c-0.49,2.447-0.929,4.881-1.321,7.207
				c-1.563,0.201-3.039,0.414-4.398,0.628c-2.74,0.532-5.027,0.948-6.621,1.283c-1.581,0.386-2.484,0.606-2.484,0.606
				s-0.902,0.221-2.483,0.605c-0.394,0.101-0.835,0.195-1.308,0.328c-0.469,0.139-0.979,0.291-1.52,0.453
				c-1.087,0.323-2.313,0.688-3.651,1.086c-1.31,0.422-2.722,0.899-4.207,1.43c-1.405-1.89-2.903-3.854-4.451-5.808
				c-1.815-2.302-3.653-4.511-5.426-6.582c-1.772-2.07-3.472-3.982-4.952-5.61c-2.963-3.256-5.036-5.381-5.036-5.381
				s-0.25,0.104-0.685,0.285c-0.427,0.198-1.036,0.481-1.77,0.82c-1.462,0.687-3.412,1.601-5.362,2.516
				c-1.904,1.003-3.81,2.007-5.238,2.761c-0.713,0.38-1.304,0.697-1.72,0.919c-0.406,0.238-0.638,0.375-0.638,0.375
				s0.445,2.935,1.257,7.259c0.406,2.162,0.907,4.669,1.49,7.329c0.578,2.654,1.243,5.469,1.983,8.301
				c0.624,2.412,1.286,4.791,1.943,7.05c-1.316,0.866-2.547,1.707-3.672,2.499c-2.245,1.659-4.162,2.979-5.4,4.039
				c-1.266,1.022-1.991,1.605-1.991,1.605s-0.18,0.146-0.519,0.42c-0.335,0.28-0.851,0.66-1.461,1.2
				c-1.205,1.094-2.981,2.598-5.016,4.506c-1.003,0.941-2.071,1.984-3.177,3.106c-2.096-1.102-4.308-2.225-6.52-3.287
				c-5.192-2.515-10.556-4.847-14.652-6.508c-2.055-0.841-3.752-1.488-4.949-1.941c-1.202-0.449-1.889-0.705-1.889-0.705
				s-0.694,0.82-1.736,2.051c-0.519,0.618-1.125,1.337-1.772,2.108c-0.651,0.771-1.282,1.642-1.944,2.489
				c-1.299,1.714-2.64,3.398-3.564,4.719c-0.921,1.325-1.533,2.208-1.533,2.208s1.66,2.443,4.244,5.98
				c2.555,3.521,6.183,8.18,9.914,12.607c1.593,1.9,3.208,3.751,4.771,5.502c-0.42,0.652-0.793,1.312-1.145,1.955
				c-0.367,0.656-0.721,1.291-1.062,1.9c-1.405,2.413-2.399,4.516-3.125,5.973c-0.724,1.458-1.137,2.291-1.137,2.291
				s-0.374,0.852-1.026,2.342c-0.644,1.496-1.631,3.603-2.575,6.23c-0.472,1.293-1.056,2.667-1.542,4.165
				c-2.341-0.074-4.799-0.12-7.277-0.124c-2.896-0.006-5.811,0.042-8.556,0.131c-1.375,0.055-2.703,0.108-3.962,0.16
				c-1.25,0.074-2.429,0.146-3.52,0.211c-4.365,0.294-7.303,0.595-7.303,0.595s-0.281,1.04-0.7,2.601
				c-0.106,0.391-0.218,0.814-0.337,1.26c-0.103,0.452-0.208,0.929-0.317,1.421c-0.216,0.987-0.446,2.039-0.676,3.091
				c-0.228,1.053-0.455,2.105-0.667,3.094c-0.194,0.99-0.332,1.921-0.472,2.717c-0.265,1.594-0.44,2.655-0.44,2.655
				s2.549,1.478,6.406,3.533c3.887,2.065,9.161,4.674,14.436,7.031c2.26,1.011,4.506,1.977,6.678,2.87
				c-0.122,1.571-0.2,3.06-0.293,4.435c-0.234,2.782-0.165,5.112-0.21,6.739c-0.022,1.629-0.034,2.559-0.034,2.559
				s0.037,0.929,0.097,2.556c0.087,1.625,0.077,3.956,0.381,6.732c0.126,1.372,0.242,2.857,0.402,4.425
				c-2.149,0.946-4.37,1.967-6.604,3.036c-5.217,2.488-10.421,5.228-14.257,7.389c-3.804,2.152-6.317,3.691-6.317,3.691
				s0.203,1.059,0.508,2.644c0.16,0.792,0.319,1.721,0.541,2.706c0.237,0.981,0.49,2.028,0.744,3.074
				c0.256,1.047,0.514,2.094,0.753,3.074c0.122,0.489,0.24,0.964,0.353,1.413c0.131,0.443,0.253,0.864,0.368,1.251
				c0.458,1.55,0.763,2.584,0.763,2.584s2.945,0.228,7.316,0.412c1.093,0.038,2.274,0.08,3.524,0.124
				c1.261,0.019,2.59,0.04,3.967,0.061c2.747,0.021,5.66-0.004,8.554-0.083c2.478-0.065,4.934-0.173,7.272-0.306
				c0.523,1.484,1.142,2.844,1.646,4.125c1.007,2.603,2.048,4.685,2.728,6.163c0.691,1.477,1.085,2.318,1.085,2.318
				s0.432,0.82,1.195,2.262c0.762,1.436,1.806,3.517,3.274,5.892c0.353,0.601,0.722,1.227,1.106,1.873
				c0.369,0.635,0.756,1.282,1.194,1.925c-1.519,1.79-3.085,3.681-4.631,5.621c-3.621,4.518-7.133,9.267-9.596,12.851
				c-2.496,3.6-4.095,6.084-4.095,6.084s0.637,0.867,1.589,2.168c0.957,1.297,2.338,2.948,3.679,4.63
				c0.684,0.828,1.337,1.685,2.006,2.437c0.668,0.757,1.292,1.462,1.826,2.066c1.07,1.204,1.785,2.008,1.785,2.008
				s0.681-0.275,1.872-0.752c1.187-0.485,2.868-1.175,4.899-2.065c4.053-1.763,9.357-4.229,14.484-6.87
				c2.186-1.119,4.367-2.299,6.436-3.45c1.133,1.094,2.227,2.108,3.256,3.024c2.083,1.856,3.895,3.315,5.126,4.382
				c0.622,0.525,1.148,0.891,1.489,1.164c0.345,0.263,0.53,0.406,0.53,0.406s0.739,0.565,2.029,1.555
				c1.265,1.03,3.213,2.303,5.498,3.903c1.146,0.765,2.399,1.572,3.736,2.405c-0.602,2.274-1.206,4.672-1.768,7.096
				c-0.671,2.851-1.265,5.681-1.777,8.349c-0.515,2.675-0.954,5.193-1.306,7.363c-0.703,4.345-1.076,7.289-1.076,7.289
				s0.236,0.13,0.646,0.358c0.422,0.212,1.022,0.513,1.743,0.878c1.449,0.716,3.377,1.673,5.307,2.628
				c1.974,0.865,3.944,1.732,5.425,2.382c0.741,0.32,1.357,0.59,1.79,0.775c0.439,0.171,0.691,0.267,0.691,0.267
				s2.02-2.175,4.899-5.505c1.44-1.664,3.09-3.618,4.81-5.729c1.721-2.117,3.502-4.369,5.259-6.717
				c1.5-1.991,2.948-3.992,4.307-5.915c1.497,0.491,2.921,0.934,4.24,1.322c1.347,0.365,2.583,0.698,3.676,0.995
				c0.547,0.147,1.059,0.284,1.532,0.413c0.474,0.121,0.918,0.205,1.314,0.297c1.589,0.344,2.498,0.542,2.498,0.542
				s0.909,0.199,2.5,0.545c1.601,0.297,3.898,0.654,6.651,1.117c1.364,0.18,2.843,0.354,4.411,0.518
				c0.452,2.315,0.952,4.737,1.5,7.173c1.28,5.636,2.81,11.24,4.071,15.47c1.256,4.222,2.201,7.041,2.201,7.041
				s0.269,0.021,0.737,0.023c0.471,0.007,1.139,0.018,1.944,0.03c1.61,0.018,3.757,0.043,5.902,0.068
				c2.146-0.077,4.291-0.158,5.898-0.216c0.805-0.032,1.477-0.06,1.944-0.077c0.471-0.015,0.737-0.045,0.737-0.045
				s0.873-2.839,2.025-7.092c1.154-4.257,2.545-9.899,3.681-15.564c0.49-2.448,0.928-4.881,1.321-7.207
				c1.562-0.203,3.039-0.412,4.398-0.626c2.74-0.534,5.027-0.95,6.622-1.284c1.581-0.389,2.482-0.608,2.482-0.608
				s0.902-0.22,2.484-0.604c0.396-0.101,0.837-0.194,1.308-0.329c0.472-0.139,0.979-0.293,1.522-0.453
				c1.087-0.322,2.312-0.688,3.648-1.085c1.312-0.421,2.724-0.899,4.207-1.429c1.406,1.89,2.905,3.854,4.453,5.808
				c1.814,2.301,3.651,4.508,5.424,6.582c1.771,2.069,3.474,3.981,4.954,5.609c2.963,3.258,5.035,5.381,5.035,5.381
				s0.248-0.104,0.682-0.284c0.431-0.2,1.039-0.48,1.773-0.822c1.46-0.686,3.411-1.602,5.361-2.514
				c1.901-1.007,3.807-2.009,5.236-2.761c0.713-0.382,1.304-0.698,1.72-0.921c0.405-0.238,0.639-0.375,0.639-0.375
				s-0.446-2.936-1.259-7.259c-0.405-2.164-0.905-4.672-1.489-7.33c-0.578-2.655-1.244-5.471-1.983-8.301
				c-0.623-2.412-1.286-4.789-1.944-7.052c1.318-0.865,2.549-1.704,3.673-2.497c2.244-1.657,4.163-2.978,5.399-4.039
				c1.266-1.021,1.993-1.604,1.993-1.604s0.179-0.147,0.519-0.421c0.335-0.28,0.852-0.66,1.458-1.2
				c1.208-1.094,2.983-2.598,5.019-4.508c1.003-0.942,2.072-1.984,3.178-3.104c2.093,1.1,4.304,2.224,6.519,3.285
				c5.192,2.515,10.555,4.847,14.65,6.509c2.056,0.84,3.754,1.489,4.95,1.939c1.2,0.449,1.89,0.707,1.89,0.707
				s0.694-0.822,1.737-2.053c0.519-0.615,1.121-1.337,1.771-2.108c0.649-0.769,1.282-1.641,1.943-2.486
				c1.3-1.715,2.639-3.398,3.561-4.721c0.923-1.324,1.535-2.207,1.535-2.207s-1.659-2.443-4.242-5.979
				c-2.554-3.522-6.184-8.181-9.916-12.607c-1.594-1.901-3.207-3.751-4.771-5.503c0.422-0.653,0.796-1.312,1.146-1.952
				c0.366-0.658,0.72-1.292,1.062-1.901c1.404-2.414,2.397-4.516,3.125-5.973c0.724-1.459,1.137-2.29,1.137-2.29
				s0.372-0.853,1.027-2.344c0.643-1.495,1.63-3.602,2.575-6.23c0.471-1.292,1.055-2.666,1.541-4.164
				c2.341,0.074,4.798,0.12,7.277,0.124c2.896,0.006,5.812-0.042,8.556-0.131c1.373-0.056,2.7-0.111,3.963-0.16
				c1.246-0.073,2.429-0.146,3.517-0.21c4.368-0.295,7.306-0.596,7.306-0.596s0.279-1.04,0.702-2.601
				c0.104-0.391,0.213-0.813,0.335-1.26c0.101-0.452,0.207-0.929,0.318-1.421c0.213-0.987,0.444-2.04,0.675-3.091
				c0.227-1.053,0.454-2.106,0.669-3.093c0.194-0.99,0.331-1.923,0.47-2.72c0.267-1.593,0.442-2.655,0.442-2.655
				S323.23,191.846,319.374,189.79z M157.689,257.88c-49.664-4.681-86.26-48.894-81.58-98.555
				c4.683-49.663,48.895-86.258,98.555-81.576c49.662,4.681,86.26,48.892,81.576,98.555
				C251.561,225.965,207.348,262.561,157.689,257.88z"/>
		</g>
	</g>
</g>
<g id="Capa_8">
	<path fill="#262626" d="M230.779,194.91l-45.563-83.694c-3.475-5.741-9.517-9.215-16.24-9.215c-6.723,0-12.766,3.475-16.243,9.215
		l-45.562,83.694c-3.476,5.968-3.55,13.068-0.15,19.035c3.398,5.968,9.516,9.519,16.39,9.519h91.126
		c6.874,0,12.994-3.551,16.392-9.519C234.33,207.979,234.254,200.877,230.779,194.91z"/>
	<path fill="#212121" d="M230.932,213.945c-3.398,5.968-9.519,9.519-16.392,9.519h-45.564V102c6.723,0,12.766,3.475,16.24,9.215
		l45.563,83.694C234.254,200.877,234.33,207.979,230.932,213.945z"/>
	<path fill="#FDD835" d="M224.283,198.763l-45.563-83.696c-2.039-3.473-5.742-5.513-9.744-5.513c-4.003,0-7.705,2.04-9.744,5.513
		l-45.563,83.696c-2.115,3.55-2.115,7.855-0.075,11.405c2.039,3.626,5.74,5.742,9.82,5.742h91.128c4.078,0,7.778-2.115,9.819-5.742
		C226.398,206.618,226.398,202.313,224.283,198.763z"/>
	<path fill="#FBC02D" d="M224.359,210.168c-2.04,3.626-5.74,5.742-9.821,5.742h-45.563V109.554c4.003,0,7.705,2.04,9.743,5.513
		l45.563,83.696C226.398,202.313,226.398,206.618,224.359,210.168z"/>
	<g>
		<path fill="#262626" d="M168.976,208.355c-4.165,0-7.554-3.39-7.554-7.553c0-4.165,3.39-7.555,7.554-7.555
			c4.165,0,7.552,3.39,7.552,7.555C176.529,204.967,173.14,208.355,168.976,208.355z"/>
		<path fill="#262626" d="M176.529,178.141c0,4.166-3.389,7.554-7.553,7.554c-4.165,0-7.554-3.389-7.554-7.554v-37.767
			c0-4.165,3.39-7.555,7.554-7.555c4.165,0,7.553,3.391,7.553,7.555V178.141z"/>
	</g>
	<g>
		<path fill="#212121" d="M176.529,200.803c0-4.165-3.389-7.555-7.553-7.555v15.107C173.14,208.355,176.529,204.967,176.529,200.803
			z"/>
		<path fill="#212121" d="M176.529,178.141v-37.767c0-4.165-3.389-7.555-7.553-7.555v52.875
			C173.14,185.694,176.529,182.306,176.529,178.141z"/>
	</g>
</g>
</svg>
