<?xml version="1.0" encoding="utf-8"?>
<!-- Generator: Adobe Illustrator 16.0.3, SVG Export Plug-In . SVG Version: 6.00 Build 0)  -->
<!DOCTYPE svg PUBLIC "-//W3C//DTD SVG 1.1//EN" "http://www.w3.org/Graphics/SVG/1.1/DTD/svg11.dtd">
<svg version="1.1" id="Capa_1" xmlns="http://www.w3.org/2000/svg" xmlns:xlink="http://www.w3.org/1999/xlink" x="0px" y="0px"
	 width="337.054px" height="336.973px" viewBox="0 0 337.054 336.973" enable-background="new 0 0 337.054 336.973"
	 xml:space="preserve">

	 <style>
			@keyframes spin { 
				0% { transform: rotate(0deg);}
				100% { transform: rotate(360deg);}
			}

			.gear {
				animation: spin 20s infinite linear;
				display: block;
				transform-origin: 50% 50%;
			}
		</style>
<g>
	<g>
		
			<linearGradient id="SVGID_1_" gradientUnits="userSpaceOnUse" x1="149.7822" y1="-99.8145" x2="379.2915" y2="129.6949" gradientTransform="matrix(1 0 0 -1 -97.6602 181.04)">
			<stop  offset="0" style="stop-color:#FF5722"/>
			<stop  offset="1" style="stop-color:#F4511E"/>
		</linearGradient>
		<path class="gear" fill="url(#SVGID_1_)" d="M307,164.94c-2.373-0.747-4.727-1.45-6.993-2.088c-0.061-1.582-0.155-3.076-0.224-4.456
			c-0.088-2.803-0.426-5.118-0.569-6.747c-0.165-1.626-0.262-2.555-0.262-2.555s-0.145-0.923-0.395-2.539
			c-0.272-1.611-0.533-3.938-1.156-6.671c-0.286-1.353-0.574-2.822-0.914-4.366c2.032-1.195,4.129-2.47,6.235-3.792
			c4.914-3.085,9.788-6.421,13.363-9.021c3.544-2.587,5.873-4.412,5.873-4.412s-0.326-1.031-0.812-2.577
			c-0.249-0.772-0.519-1.679-0.852-2.636c-0.351-0.951-0.726-1.968-1.098-2.981c-0.376-1.014-0.754-2.027-1.107-2.978
			c-0.179-0.475-0.352-0.933-0.516-1.368c-0.181-0.428-0.353-0.833-0.51-1.206c-0.638-1.492-1.062-2.486-1.062-2.486
			s-2.963,0.113-7.345,0.435c-1.094,0.089-2.276,0.184-3.528,0.286c-1.259,0.125-2.588,0.26-3.962,0.398
			c-2.741,0.298-5.645,0.66-8.523,1.073c-2.464,0.353-4.903,0.744-7.219,1.148c-0.695-1.42-1.469-2.705-2.118-3.923
			c-1.306-2.48-2.585-4.437-3.435-5.832c-0.859-1.391-1.352-2.184-1.352-2.184s-0.526-0.77-1.451-2.118
			c-0.929-1.347-2.211-3.298-3.946-5.5c-0.424-0.559-0.864-1.14-1.322-1.739c-0.44-0.589-0.904-1.192-1.415-1.784
			c1.311-1.959,2.653-4.026,3.973-6.14c3.087-4.926,6.037-10.068,8.082-13.928c2.072-3.88,3.38-6.542,3.38-6.542
			s-0.735-0.791-1.837-1.979c-1.105-1.183-2.673-2.669-4.205-4.19c-0.776-0.75-1.529-1.526-2.283-2.201
			c-0.753-0.675-1.456-1.305-2.059-1.846c-1.209-1.078-2.015-1.794-2.015-1.794s-0.646,0.352-1.778,0.966
			c-1.128,0.618-2.725,1.501-4.649,2.625c-3.836,2.228-8.841,5.301-13.65,8.53c-2.05,1.369-4.091,2.796-6.02,4.186
			c-1.256-0.96-2.465-1.846-3.596-2.642c-2.293-1.61-4.269-2.856-5.62-3.774c-0.68-0.454-1.246-0.757-1.618-0.99
			c-0.375-0.225-0.576-0.343-0.576-0.343s-0.803-0.479-2.206-1.315c-1.379-0.881-3.471-1.925-5.935-3.257
			c-1.229-0.629-2.573-1.291-4.004-1.967c0.336-2.339,0.66-4.797,0.941-7.283c0.338-2.919,0.603-5.811,0.804-8.532
			c0.207-2.726,0.354-5.289,0.452-7.496c0.199-4.414,0.23-7.394,0.23-7.394s-0.249-0.104-0.686-0.283
			c-0.445-0.162-1.079-0.395-1.842-0.673c-1.524-0.548-3.56-1.277-5.595-2.007c-2.067-0.636-4.134-1.271-5.684-1.748
			c-0.777-0.234-1.423-0.431-1.878-0.566c-0.456-0.118-0.72-0.188-0.72-0.188s-1.762,2.406-4.251,6.059
			c-1.242,1.827-2.662,3.967-4.133,6.274c-1.472,2.308-2.988,4.76-4.469,7.305c-1.266,2.158-2.478,4.323-3.609,6.398
			c-1.551-0.317-3.024-0.593-4.385-0.829c-1.384-0.208-2.654-0.398-3.779-0.566c-0.564-0.083-1.088-0.164-1.576-0.236
			c-0.488-0.066-0.94-0.097-1.347-0.141c-1.625-0.161-2.555-0.254-2.555-0.254s-0.93-0.092-2.558-0.254
			c-1.628-0.109-3.962-0.201-6.76-0.345c-1.382-0.022-2.879-0.025-4.461-0.004c-0.715-2.258-1.497-4.616-2.327-6.979
			c-1.926-5.474-4.102-10.885-5.848-14.958c-1.742-4.066-3.01-6.767-3.01-6.767s-0.27,0.01-0.738,0.062
			c-0.469,0.047-1.14,0.114-1.943,0.195c-1.606,0.168-3.75,0.391-5.893,0.615c-2.129,0.326-4.26,0.652-5.857,0.898
			c-0.798,0.126-1.463,0.231-1.929,0.304c-0.465,0.068-0.729,0.127-0.729,0.127s-0.543,2.934-1.199,7.308
			c-0.658,4.383-1.391,10.168-1.87,15.951c-0.206,2.498-0.362,4.976-0.482,7.342c-1.535,0.38-2.984,0.763-4.316,1.135
			c-2.67,0.849-4.903,1.527-6.452,2.046c-1.532,0.567-2.409,0.892-2.409,0.892s-0.874,0.325-2.407,0.892
			c-0.382,0.147-0.811,0.291-1.266,0.477c-0.453,0.194-0.942,0.405-1.466,0.629c-1.046,0.447-2.227,0.953-3.514,1.503
			c-1.258,0.573-2.611,1.212-4.03,1.913c-1.621-1.724-3.343-3.508-5.114-5.276c-2.076-2.087-4.164-4.075-6.173-5.937
			c-2.006-1.858-3.922-3.569-5.588-5.022c-3.332-2.904-5.646-4.783-5.646-4.783s-0.236,0.131-0.648,0.362
			c-0.404,0.247-0.978,0.6-1.67,1.024c-1.379,0.853-3.217,1.992-5.057,3.13c-1.783,1.222-3.566,2.442-4.905,3.359
			c-0.667,0.462-1.221,0.847-1.609,1.117c-0.378,0.285-0.593,0.447-0.593,0.447s0.784,2.876,2.095,7.095
			c0.655,2.109,1.446,4.551,2.333,7.137c0.884,2.581,1.874,5.312,2.941,8.051c0.901,2.332,1.837,4.628,2.755,6.806
			c-1.212,1.016-2.344,1.997-3.376,2.917c-2.047,1.912-3.803,3.452-4.916,4.652c-1.145,1.166-1.8,1.833-1.8,1.833
			s-0.164,0.167-0.47,0.479c-0.301,0.319-0.772,0.757-1.316,1.367c-1.076,1.231-2.673,2.937-4.481,5.075
			c-0.893,1.056-1.836,2.218-2.81,3.465c-2.218-0.855-4.554-1.719-6.883-2.523c-5.47-1.908-11.089-3.613-15.367-4.795
			c-2.146-0.6-3.912-1.05-5.161-1.362c-1.25-0.308-1.965-0.484-1.965-0.484s-0.598,0.899-1.494,2.246
			c-0.446,0.676-0.967,1.464-1.525,2.308c-0.559,0.843-1.088,1.785-1.65,2.707c-1.097,1.86-2.238,3.694-3.006,5.12
			c-0.765,1.427-1.276,2.378-1.276,2.378s1.94,2.247,4.926,5.474c2.953,3.215,7.113,7.443,11.347,11.425
			c1.811,1.709,3.633,3.371,5.396,4.935c-0.345,0.7-0.641,1.402-0.916,2.083c-0.291,0.697-0.571,1.371-0.839,2.019
			c-1.121,2.568-1.869,4.783-2.424,6.32c-0.555,1.538-0.871,2.416-0.871,2.416s-0.274,0.892-0.752,2.456
			c-0.469,1.564-1.209,3.781-1.847,6.511c-0.321,1.345-0.743,2.783-1.055,4.332c-2.345,0.198-4.8,0.437-7.272,0.719
			c-2.891,0.329-5.792,0.714-8.518,1.121c-1.365,0.214-2.684,0.422-3.935,0.618c-1.235,0.22-2.405,0.427-3.484,0.618
			c-4.322,0.799-7.216,1.439-7.216,1.439s-0.16,1.07-0.397,2.676c-0.059,0.4-0.122,0.835-0.189,1.296
			c-0.048,0.461-0.099,0.95-0.151,1.454c-0.102,1.008-0.209,2.085-0.318,3.162c-0.105,1.076-0.209,2.152-0.307,3.161
			c-0.08,1.011-0.11,1.957-0.157,2.764c-0.079,1.62-0.131,2.7-0.131,2.7s2.715,1.178,6.797,2.783
			c4.118,1.608,9.678,3.6,15.211,5.341c2.371,0.747,4.724,1.448,6.993,2.088c0.061,1.582,0.155,3.076,0.221,4.457
			c0.089,2.802,0.427,5.118,0.569,6.746c0.168,1.625,0.263,2.556,0.263,2.556s0.144,0.923,0.393,2.538
			c0.274,1.611,0.534,3.937,1.159,6.671c0.285,1.353,0.571,2.824,0.913,4.367c-2.031,1.193-4.13,2.468-6.236,3.792
			c-4.912,3.085-9.789,6.42-13.363,9.019c-3.544,2.587-5.872,4.414-5.872,4.414s0.323,1.03,0.811,2.578
			c0.251,0.771,0.519,1.678,0.853,2.635c0.351,0.953,0.724,1.968,1.097,2.983c0.377,1.013,0.754,2.027,1.107,2.978
			c0.179,0.474,0.353,0.934,0.515,1.366c0.181,0.43,0.353,0.833,0.511,1.205c0.638,1.494,1.062,2.488,1.062,2.488
			s2.961-0.114,7.345-0.434c1.093-0.09,2.276-0.186,3.527-0.287c1.261-0.127,2.588-0.26,3.963-0.398
			c2.742-0.297,5.646-0.658,8.524-1.074c2.464-0.353,4.9-0.742,7.218-1.146c0.695,1.421,1.469,2.705,2.118,3.924
			c1.306,2.48,2.585,4.436,3.435,5.831c0.858,1.39,1.351,2.184,1.351,2.184s0.528,0.77,1.453,2.116
			c0.928,1.346,2.211,3.297,3.946,5.5c0.425,0.558,0.866,1.139,1.323,1.739c0.44,0.589,0.904,1.192,1.416,1.782
			c-1.311,1.961-2.654,4.027-3.972,6.14c-3.088,4.927-6.041,10.069-8.083,13.929c-2.073,3.877-3.38,6.542-3.38,6.542
			s0.734,0.792,1.836,1.979c1.106,1.185,2.673,2.671,4.205,4.191c0.778,0.748,1.529,1.525,2.284,2.199
			c0.753,0.678,1.455,1.306,2.058,1.847c1.208,1.078,2.015,1.795,2.015,1.795s0.646-0.352,1.778-0.965
			c1.128-0.619,2.725-1.503,4.648-2.627c3.838-2.228,8.842-5.3,13.651-8.53c2.05-1.368,4.09-2.796,6.018-4.185
			c1.258,0.96,2.465,1.846,3.597,2.642c2.292,1.61,4.268,2.855,5.619,3.775c0.681,0.452,1.247,0.757,1.62,0.988
			c0.375,0.224,0.576,0.344,0.576,0.344s0.801,0.479,2.205,1.316c1.38,0.881,3.471,1.924,5.935,3.257
			c1.231,0.63,2.574,1.292,4.004,1.968c-0.337,2.34-0.661,4.796-0.942,7.284c-0.338,2.917-0.603,5.809-0.804,8.53
			c-0.207,2.727-0.352,5.287-0.453,7.496c-0.197,4.414-0.229,7.395-0.229,7.395s0.25,0.102,0.686,0.282
			c0.443,0.162,1.079,0.395,1.839,0.672c1.526,0.548,3.562,1.278,5.597,2.008c2.067,0.636,4.134,1.271,5.683,1.747
			c0.776,0.235,1.423,0.43,1.876,0.566c0.457,0.118,0.72,0.188,0.72,0.188s1.762-2.405,4.251-6.06
			c1.242-1.827,2.663-3.968,4.132-6.273c1.471-2.308,2.989-4.763,4.469-7.306c1.265-2.159,2.479-4.324,3.61-6.399
			c1.55,0.317,3.021,0.593,4.382,0.829c1.385,0.208,2.656,0.396,3.781,0.564c0.563,0.085,1.088,0.163,1.577,0.237
			c0.489,0.065,0.94,0.097,1.346,0.141c1.626,0.161,2.556,0.253,2.556,0.253s0.929,0.092,2.556,0.255
			c1.63,0.11,3.964,0.201,6.762,0.345c1.382,0.021,2.88,0.024,4.461,0.005c0.717,2.258,1.498,4.615,2.328,6.979
			c1.927,5.473,4.101,10.886,5.847,14.958c1.742,4.065,3.011,6.766,3.011,6.766s0.269-0.009,0.739-0.062
			c0.467-0.046,1.137-0.113,1.941-0.194c1.607-0.168,3.751-0.394,5.894-0.615c2.129-0.326,4.261-0.653,5.857-0.898
			c0.797-0.126,1.461-0.229,1.927-0.304c0.467-0.067,0.731-0.128,0.731-0.128s0.543-2.935,1.198-7.308
			c0.66-4.382,1.393-10.169,1.871-15.95c0.204-2.498,0.361-4.978,0.483-7.343c1.536-0.381,2.983-0.763,4.315-1.134
			c2.671-0.848,4.904-1.527,6.454-2.045c1.532-0.569,2.408-0.894,2.408-0.894s0.876-0.323,2.408-0.891
			c0.383-0.147,0.811-0.292,1.266-0.479c0.452-0.193,0.942-0.402,1.464-0.626c1.047-0.448,2.229-0.953,3.515-1.506
			c1.256-0.572,2.613-1.21,4.03-1.911c1.62,1.723,3.342,3.507,5.112,5.275c2.078,2.088,4.164,4.077,6.174,5.938
			c2.005,1.859,3.922,3.569,5.587,5.022c3.333,2.905,5.647,4.784,5.647,4.784s0.234-0.132,0.648-0.363
			c0.402-0.247,0.979-0.599,1.671-1.024c1.379-0.854,3.219-1.991,5.058-3.13c1.783-1.222,3.565-2.442,4.905-3.357
			c0.665-0.464,1.221-0.849,1.608-1.118c0.379-0.286,0.596-0.447,0.596-0.447s-0.786-2.875-2.098-7.094
			c-0.655-2.109-1.446-4.553-2.334-7.137c-0.883-2.582-1.873-5.313-2.939-8.051c-0.902-2.333-1.837-4.628-2.755-6.807
			c1.213-1.015,2.344-1.996,3.375-2.915c2.046-1.913,3.803-3.452,4.914-4.654c1.147-1.165,1.801-1.831,1.801-1.831
			s0.164-0.166,0.47-0.479c0.303-0.317,0.773-0.757,1.317-1.365c1.075-1.231,2.672-2.937,4.48-5.076
			c0.893-1.054,1.837-2.219,2.811-3.465c2.218,0.855,4.554,1.719,6.883,2.524c5.471,1.906,11.088,3.61,15.365,4.792
			c2.146,0.602,3.914,1.051,5.16,1.362c1.252,0.311,1.967,0.487,1.967,0.487s0.597-0.9,1.493-2.246
			c0.446-0.677,0.966-1.467,1.524-2.31c0.56-0.844,1.09-1.786,1.65-2.707c1.098-1.858,2.238-3.694,3.006-5.119
			c0.766-1.427,1.276-2.381,1.276-2.381s-1.938-2.245-4.926-5.474c-2.953-3.216-7.113-7.441-11.348-11.425
			c-1.809-1.71-3.632-3.371-5.396-4.937c0.344-0.7,0.641-1.4,0.916-2.082c0.291-0.697,0.57-1.37,0.838-2.017
			c1.123-2.57,1.87-4.784,2.427-6.319c0.553-1.538,0.869-2.417,0.869-2.417s0.274-0.894,0.753-2.456
			c0.469-1.564,1.21-3.782,1.848-6.511c0.319-1.344,0.741-2.783,1.055-4.333c2.344-0.197,4.799-0.436,7.271-0.718
			c2.89-0.329,5.792-0.713,8.518-1.121c1.365-0.213,2.685-0.42,3.936-0.619c1.235-0.219,2.406-0.426,3.484-0.617
			c4.323-0.8,7.216-1.44,7.216-1.44s0.159-1.07,0.396-2.675c0.061-0.401,0.124-0.835,0.189-1.295
			c0.049-0.463,0.099-0.948,0.15-1.452c0.103-1.01,0.21-2.085,0.318-3.162c0.103-1.078,0.207-2.153,0.305-3.162
			c0.08-1.01,0.11-1.956,0.157-2.766c0.08-1.62,0.133-2.7,0.133-2.7s-2.715-1.177-6.798-2.783
			C318.094,168.672,312.533,166.68,307,164.94z M268.976,202.195c-0.454,1.248-1.05,3.051-1.972,5.136
			c-0.216,0.527-0.443,1.075-0.678,1.643c-0.227,0.571-0.472,1.156-0.764,1.739c-0.561,1.181-1.147,2.425-1.757,3.714
			c-0.65,1.269-1.365,2.555-2.06,3.88l-0.527,0.998l-0.584,0.97c-0.389,0.649-0.778,1.303-1.17,1.956
			c-3.161,5.197-6.786,10.103-9.732,13.59c-1.474,1.738-2.778,3.124-3.646,4.133c-0.44,0.498-0.829,0.852-1.073,1.109
			c-0.249,0.255-0.383,0.39-0.383,0.39s-0.532,0.542-1.465,1.493c-0.896,0.987-2.344,2.223-4.001,3.788
			c-3.403,3.028-8.132,6.867-13.221,10.184c-5.093,3.312-10.5,6.079-14.635,7.971c-1.047,0.446-2.004,0.855-2.853,1.219
			c-0.425,0.185-0.822,0.355-1.188,0.516c-0.368,0.153-0.719,0.268-1.029,0.385c-1.246,0.457-1.957,0.721-1.957,0.721
			s-0.709,0.265-1.953,0.729c-1.266,0.401-3.074,0.977-5.242,1.664c-4.393,1.209-10.32,2.595-16.38,3.396
			c-6.064,0.76-12.15,0.921-16.706,0.862c-2.273-0.115-4.168-0.212-5.494-0.279c-1.32-0.136-2.074-0.211-2.074-0.211
			s-0.753-0.074-2.075-0.203c-0.33-0.034-0.698-0.058-1.093-0.113c-0.396-0.061-0.823-0.126-1.279-0.196
			c-0.915-0.136-1.946-0.291-3.069-0.458c-4.478-0.78-10.413-2.088-16.176-4.004c-5.765-1.92-11.309-4.432-15.37-6.503
			c-2-1.093-3.711-1.922-4.829-2.651c-1.142-0.681-1.795-1.071-1.795-1.071s-0.164-0.097-0.469-0.279
			c-0.303-0.189-0.768-0.431-1.32-0.802c-1.096-0.755-2.708-1.765-4.577-3.075c-3.733-2.624-8.481-6.452-12.855-10.681
			c-0.544-0.532-1.086-1.064-1.625-1.595l-0.813-0.793l-0.762-0.827c-1.006-1.108-2.026-2.171-2.976-3.232
			c-0.914-1.092-1.799-2.147-2.638-3.147c-0.434-0.489-0.818-0.995-1.182-1.487c-0.372-0.491-0.729-0.964-1.073-1.418
			c-1.419-1.784-2.452-3.377-3.208-4.47c-0.755-1.092-1.187-1.716-1.187-1.716s-0.395-0.647-1.09-1.778
			c-0.688-1.135-1.738-2.716-2.79-4.734c-0.531-1.004-1.182-2.055-1.746-3.229c-0.572-1.171-1.176-2.404-1.799-3.683
			c-1.142-2.601-2.394-5.366-3.386-8.235c-0.266-0.71-0.532-1.42-0.796-2.128c-0.225-0.721-0.449-1.44-0.673-2.152
			c-0.225-0.712-0.448-1.419-0.668-2.118c-0.109-0.35-0.229-0.693-0.326-1.04c-0.09-0.35-0.178-0.698-0.265-1.044
			c-0.361-1.378-0.708-2.709-1.038-3.973c-0.266-1.281-0.518-2.491-0.748-3.608c-0.522-2.222-0.714-4.128-0.943-5.441
			c-0.209-1.319-0.329-2.072-0.329-2.072s-0.074-0.758-0.206-2.086c-0.112-1.327-0.407-3.221-0.466-5.502
			c-0.059-1.141-0.121-2.375-0.189-3.679c0-1.306,0-2.682-0.001-4.107c-0.001-0.355-0.004-0.715-0.005-1.077
			c0.007-0.362,0.035-0.725,0.052-1.091c0.037-0.73,0.073-1.471,0.112-2.216c0.034-0.745,0.069-1.498,0.104-2.253
			c0.077-0.751,0.154-1.505,0.231-2.26c0.234-3.026,0.744-6.018,1.191-8.824c0.279-1.394,0.55-2.741,0.807-4.017
			c0.249-1.279,0.611-2.461,0.872-3.566c0.505-2.22,1.121-4.017,1.499-5.289c0.386-1.271,0.605-1.997,0.605-1.997
			s0.259-0.711,0.713-1.961c0.453-1.248,1.05-3.051,1.971-5.136c0.217-0.527,0.445-1.075,0.679-1.642
			c0.227-0.569,0.47-1.156,0.765-1.738c0.559-1.182,1.146-2.425,1.754-3.713c0.649-1.268,1.367-2.555,2.06-3.881l0.528-0.996
			l0.586-0.972c0.388-0.649,0.778-1.301,1.169-1.956c3.159-5.198,6.786-10.104,9.732-13.589c1.474-1.741,2.778-3.125,3.647-4.133
			c0.442-0.499,0.829-0.852,1.073-1.111c0.251-0.252,0.384-0.388,0.384-0.388s0.532-0.542,1.464-1.493
			c0.897-0.988,2.343-2.223,4-3.79c3.404-3.03,8.133-6.866,13.223-10.182c5.091-3.313,10.501-6.081,14.633-7.972
			c1.045-0.446,2.003-0.855,2.852-1.219c0.425-0.184,0.822-0.356,1.188-0.515c0.369-0.154,0.719-0.267,1.03-0.385
			c1.245-0.459,1.957-0.72,1.957-0.72s0.71-0.266,1.952-0.731c1.267-0.401,3.076-0.974,5.244-1.662
			c4.391-1.21,10.32-2.596,16.379-3.396c6.064-0.761,12.149-0.922,16.704-0.863c2.275,0.117,4.169,0.214,5.496,0.281
			c1.321,0.136,2.074,0.212,2.074,0.212s0.754,0.074,2.077,0.203c0.331,0.034,0.697,0.057,1.092,0.112
			c0.396,0.061,0.823,0.127,1.279,0.198c0.913,0.137,1.944,0.291,3.069,0.457c4.479,0.783,10.411,2.089,16.176,4.004
			c5.762,1.919,11.309,4.434,15.371,6.502c1.999,1.095,3.711,1.925,4.828,2.65c1.142,0.684,1.794,1.073,1.794,1.073
			s0.164,0.096,0.47,0.279c0.303,0.189,0.769,0.432,1.321,0.802c1.095,0.755,2.708,1.764,4.576,3.073
			c3.732,2.627,8.48,6.454,12.855,10.682c0.542,0.532,1.085,1.065,1.626,1.596l0.813,0.791l0.761,0.829
			c1.007,1.106,2.027,2.172,2.977,3.233c0.914,1.091,1.8,2.146,2.638,3.147c0.434,0.488,0.816,0.994,1.181,1.488
			c0.372,0.489,0.73,0.962,1.074,1.416c1.42,1.785,2.452,3.376,3.208,4.469c0.753,1.093,1.186,1.717,1.186,1.717
			s0.397,0.646,1.091,1.777c0.688,1.137,1.739,2.718,2.789,4.735c0.532,1.003,1.184,2.056,1.749,3.23
			c0.57,1.17,1.175,2.404,1.798,3.682c1.142,2.602,2.394,5.367,3.386,8.234c0.265,0.71,0.532,1.42,0.797,2.127
			c0.225,0.722,0.45,1.441,0.673,2.155c0.224,0.711,0.447,1.417,0.669,2.116c0.109,0.35,0.228,0.693,0.327,1.041
			c0.089,0.352,0.179,0.699,0.266,1.043c0.36,1.378,0.709,2.71,1.038,3.973c0.265,1.282,0.519,2.491,0.749,3.609
			c0.522,2.222,0.716,4.127,0.944,5.441c0.207,1.319,0.328,2.072,0.328,2.072s0.074,0.759,0.207,2.087
			c0.11,1.328,0.405,3.22,0.466,5.502c0.058,1.139,0.121,2.374,0.188,3.679c0,1.306,0.003,2.683,0.003,4.107
			c0,0.355,0.003,0.715,0.006,1.077c-0.009,0.361-0.036,0.725-0.053,1.089c-0.037,0.731-0.074,1.471-0.111,2.218
			c-0.035,0.746-0.07,1.498-0.105,2.253c-0.077,0.751-0.152,1.505-0.231,2.261c-0.234,3.027-0.743,6.017-1.189,8.824
			c-0.28,1.393-0.552,2.74-0.809,4.016c-0.248,1.28-0.612,2.46-0.871,3.567c-0.506,2.219-1.122,4.015-1.5,5.287
			c-0.386,1.271-0.606,1.997-0.606,1.997S269.43,200.947,268.976,202.195z"/>
	</g>
</g>
<g id="Capa_9">
	<g>
		<g>
			<path fill="#E65100" d="M130.002,238.321c11.985,0,18.347-10.704,20.219-17.028c0.03-0.098,0.057-0.202,0.083-0.306
				c4.36-18.058,11.306-46.679,16.452-67.499h18.41c3.46,0,6.267-2.806,6.267-6.267c0-3.464-2.806-6.269-6.267-6.269h-15.296
				c1.649-6.56,2.853-11.231,3.329-12.824l0.525-1.786c1.942-6.632,6.495-22.166,13.531-22.166c6.526,0,7.496,10.051,7.541,10.535
				c0.278,3.441,3.28,6.041,6.729,5.743c3.452-0.264,6.036-3.281,5.769-6.73c-0.586-7.64-5.533-22.087-20.041-22.087
				c-16.428,0-22.595,21.057-25.559,31.178l-0.504,1.707c-0.603,2.002-2.181,8.175-4.243,16.428h-21.932
				c-3.461,0-6.269,2.806-6.269,6.27c0,3.461,2.807,6.267,6.269,6.267h18.824c-6.435,26.104-14.752,60.535-15.667,64.326
				c-0.342,0.993-2.911,7.971-8.169,7.971c-8.029,0-11.504-11.27-11.532-11.354c-0.963-3.324-4.431-5.247-7.764-4.278
				c-3.325,0.966-5.241,4.442-4.277,7.766C108.623,225.497,116.053,238.321,130.002,238.321z"/>
			<path fill="#E65100" d="M222.959,222.156c3.694,0,6.799-2.622,6.799-6.8c0-1.941-0.777-3.69-2.43-5.634l-13.016-14.959
				l12.63-14.765c1.164-1.458,2.038-3.011,2.038-5.052c0-3.694-3.014-6.413-6.899-6.413c-2.62,0-4.66,1.65-6.413,3.791l-9.81,12.818
				l-9.616-12.82c-1.946-2.425-3.982-3.79-6.897-3.79c-3.695,0-6.8,2.626-6.8,6.801c0,1.941,0.777,3.691,2.426,5.632l12.145,13.989
				l-13.311,15.737c-1.263,1.458-2.038,3.012-2.038,5.053c0,3.693,3.011,6.411,6.896,6.411c2.624,0,4.662-1.65,6.411-3.789
				l10.489-13.793l10.491,13.793C218.007,220.797,220.046,222.156,222.959,222.156z"/>
		</g>
	</g>
</g>
</svg>
